<svg width="180" height="46" viewBox="0 0 180 46" fill="none" xmlns="http://www.w3.org/2000/svg">
<rect width="46" height="46" rx="23" fill="white"/>
<g clip-path="url(#clip0_2_2154)">
<path d="M34.4969 19.7778C34.9864 16.4379 32.4922 14.6423 29.0814 13.4446L30.1891 8.92055L27.4873 8.23435L26.4081 12.6394C25.6987 12.4592 24.9696 12.2881 24.2449 12.1204L25.328 7.6862L22.6288 7L21.5243 11.5223L16.0763 10.1464L15.3575 13.0882C15.3575 13.0882 17.3617 13.5565 17.3194 13.5857C18.4133 13.8643 18.6117 14.6021 18.5782 15.1875L15.547 27.5812C15.4131 27.92 15.0739 28.428 14.3093 28.2338C14.3364 28.2739 12.346 27.7318 12.346 27.7318L11.0049 30.8889L16.445 32.2895L15.327 36.8662L18.0249 37.5524L19.1326 33.0248C19.8711 33.2286 20.5849 33.4169 21.2846 33.5941L20.1813 38.1006L22.8826 38.7868L24.0007 34.2188C28.6071 35.1073 32.071 34.7489 33.5271 30.5042C34.7017 27.0845 33.4695 25.1117 31.0458 23.8247C32.8108 23.408 34.14 22.2249 34.4947 19.7795L34.4969 19.7778ZM28.3233 28.6022C27.4863 32.0219 21.8406 30.1739 20.0087 29.7096L21.4921 23.647C23.323 24.1128 29.1942 25.0355 28.3243 28.6017L28.3233 28.6022ZM29.1612 19.7293C28.3996 22.8416 23.6987 21.2603 22.1729 20.8723L23.516 15.3722C25.0422 15.7607 29.9533 16.484 29.1592 19.7291" fill="#010725"/>
</g>
<path d="M63.224 29V16.4H68.282C69.59 16.4 70.586 16.706 71.27 17.318C71.966 17.918 72.314 18.692 72.314 19.64C72.314 20.432 72.098 21.068 71.666 21.548C71.246 22.016 70.73 22.334 70.118 22.502C70.838 22.646 71.432 23.006 71.9 23.582C72.368 24.146 72.602 24.806 72.602 25.562C72.602 26.558 72.242 27.38 71.522 28.028C70.802 28.676 69.782 29 68.462 29H63.224ZM65.528 21.692H67.94C68.588 21.692 69.086 21.542 69.434 21.242C69.782 20.942 69.956 20.516 69.956 19.964C69.956 19.436 69.782 19.022 69.434 18.722C69.098 18.41 68.588 18.254 67.904 18.254H65.528V21.692ZM65.528 27.128H68.102C68.786 27.128 69.314 26.972 69.686 26.66C70.07 26.336 70.262 25.886 70.262 25.31C70.262 24.722 70.064 24.26 69.668 23.924C69.272 23.588 68.738 23.42 68.066 23.42H65.528V27.128ZM75.7675 18.686C75.3475 18.686 74.9995 18.56 74.7235 18.308C74.4595 18.056 74.3275 17.738 74.3275 17.354C74.3275 16.97 74.4595 16.658 74.7235 16.418C74.9995 16.166 75.3475 16.04 75.7675 16.04C76.1875 16.04 76.5295 16.166 76.7935 16.418C77.0695 16.658 77.2075 16.97 77.2075 17.354C77.2075 17.738 77.0695 18.056 76.7935 18.308C76.5295 18.56 76.1875 18.686 75.7675 18.686ZM74.6155 29V20.072H76.9195V29H74.6155ZM83.3023 29C82.3663 29 81.6163 28.772 81.0523 28.316C80.4883 27.86 80.2063 27.05 80.2063 25.886V21.998H78.6763V20.072H80.2063L80.4763 17.678H82.5103V20.072H84.9223V21.998H82.5103V25.904C82.5103 26.336 82.6003 26.636 82.7803 26.804C82.9723 26.96 83.2963 27.038 83.7523 27.038H84.8683V29H83.3023ZM91.046 29.216C90.134 29.216 89.33 29.018 88.634 28.622C87.938 28.226 87.386 27.674 86.978 26.966C86.582 26.258 86.384 25.448 86.384 24.536C86.384 23.624 86.582 22.814 86.978 22.106C87.386 21.398 87.938 20.846 88.634 20.45C89.33 20.054 90.134 19.856 91.046 19.856C92.186 19.856 93.146 20.156 93.926 20.756C94.706 21.344 95.204 22.16 95.42 23.204H92.99C92.87 22.772 92.63 22.436 92.27 22.196C91.922 21.944 91.508 21.818 91.028 21.818C90.392 21.818 89.852 22.058 89.408 22.538C88.964 23.018 88.742 23.684 88.742 24.536C88.742 25.388 88.964 26.054 89.408 26.534C89.852 27.014 90.392 27.254 91.028 27.254C91.508 27.254 91.922 27.134 92.27 26.894C92.63 26.654 92.87 26.312 92.99 25.868H95.42C95.204 26.876 94.706 27.686 93.926 28.298C93.146 28.91 92.186 29.216 91.046 29.216ZM101.749 29.216C100.885 29.216 100.105 29.018 99.4089 28.622C98.7249 28.226 98.1789 27.68 97.7709 26.984C97.3749 26.276 97.1769 25.46 97.1769 24.536C97.1769 23.612 97.3809 22.802 97.7889 22.106C98.1969 21.398 98.7429 20.846 99.4269 20.45C100.123 20.054 100.903 19.856 101.767 19.856C102.619 19.856 103.387 20.054 104.071 20.45C104.767 20.846 105.313 21.398 105.709 22.106C106.117 22.802 106.321 23.612 106.321 24.536C106.321 25.46 106.117 26.276 105.709 26.984C105.313 27.68 104.767 28.226 104.071 28.622C103.375 29.018 102.601 29.216 101.749 29.216ZM101.749 27.218C102.349 27.218 102.871 26.996 103.315 26.552C103.759 26.096 103.981 25.424 103.981 24.536C103.981 23.648 103.759 22.982 103.315 22.538C102.871 22.082 102.355 21.854 101.767 21.854C101.155 21.854 100.627 22.082 100.183 22.538C99.7509 22.982 99.5349 23.648 99.5349 24.536C99.5349 25.424 99.7509 26.096 100.183 26.552C100.627 26.996 101.149 27.218 101.749 27.218ZM109.623 18.686C109.203 18.686 108.855 18.56 108.579 18.308C108.315 18.056 108.183 17.738 108.183 17.354C108.183 16.97 108.315 16.658 108.579 16.418C108.855 16.166 109.203 16.04 109.623 16.04C110.043 16.04 110.385 16.166 110.649 16.418C110.925 16.658 111.063 16.97 111.063 17.354C111.063 17.738 110.925 18.056 110.649 18.308C110.385 18.56 110.043 18.686 109.623 18.686ZM108.471 29V20.072H110.775V29H108.471ZM113.18 29V20.072H115.214L115.394 21.584C115.67 21.056 116.066 20.636 116.582 20.324C117.11 20.012 117.728 19.856 118.436 19.856C119.54 19.856 120.398 20.204 121.01 20.9C121.622 21.596 121.928 22.616 121.928 23.96V29H119.624V24.176C119.624 23.408 119.468 22.82 119.156 22.412C118.844 22.004 118.358 21.8 117.698 21.8C117.05 21.8 116.516 22.028 116.096 22.484C115.688 22.94 115.484 23.576 115.484 24.392V29H113.18Z" fill="white"/>
<rect x="139" y="10" width="41" height="26" rx="13" fill="#010D50"/>
<path d="M148.155 26.5V18.1H151.323C152.195 18.1 152.855 18.304 153.303 18.712C153.751 19.12 153.975 19.632 153.975 20.248C153.975 20.784 153.831 21.212 153.543 21.532C153.255 21.844 152.907 22.056 152.499 22.168C152.819 22.232 153.103 22.36 153.351 22.552C153.607 22.744 153.807 22.984 153.951 23.272C154.095 23.56 154.167 23.872 154.167 24.208C154.167 24.64 154.059 25.032 153.843 25.384C153.635 25.728 153.327 26 152.919 26.2C152.511 26.4 152.011 26.5 151.419 26.5H148.155ZM149.427 21.7H151.167C151.655 21.7 152.027 21.588 152.283 21.364C152.539 21.132 152.667 20.816 152.667 20.416C152.667 20.024 152.539 19.712 152.283 19.48C152.035 19.248 151.655 19.132 151.143 19.132H149.427V21.7ZM149.427 25.456H151.251C151.763 25.456 152.159 25.336 152.439 25.096C152.727 24.856 152.871 24.52 152.871 24.088C152.871 23.656 152.723 23.316 152.427 23.068C152.131 22.812 151.731 22.684 151.227 22.684H149.427V25.456ZM157.977 26.5V19.132H155.493V18.1H161.721V19.132H159.249V26.5H157.977ZM166.88 26.644C166.048 26.644 165.328 26.464 164.72 26.104C164.12 25.736 163.656 25.228 163.328 24.58C163 23.924 162.836 23.168 162.836 22.312C162.836 21.448 163 20.692 163.328 20.044C163.656 19.388 164.12 18.876 164.72 18.508C165.328 18.14 166.048 17.956 166.88 17.956C167.864 17.956 168.668 18.196 169.292 18.676C169.916 19.156 170.312 19.828 170.48 20.692H169.064C168.952 20.204 168.712 19.816 168.344 19.528C167.976 19.24 167.484 19.096 166.868 19.096C166.028 19.096 165.364 19.384 164.876 19.96C164.388 20.528 164.144 21.312 164.144 22.312C164.144 23.304 164.388 24.084 164.876 24.652C165.364 25.22 166.028 25.504 166.868 25.504C167.484 25.504 167.976 25.368 168.344 25.096C168.712 24.824 168.952 24.452 169.064 23.98H170.48C170.312 24.812 169.916 25.464 169.292 25.936C168.668 26.408 167.864 26.644 166.88 26.644Z" fill="white"/>
<defs>
<clipPath id="clip0_2_2154">
<rect width="24" height="32" fill="white" transform="translate(11.0049 7)"/>
</clipPath>
</defs>
</svg>
