<svg width="1198" height="33" viewBox="0 0 1198 33" fill="none" xmlns="http://www.w3.org/2000/svg">
<g clip-path="url(#clip0_2_437)">
<g clip-path="url(#clip1_2_437)">
<path d="M64.4803 23.7079C63.0128 23.7079 61.7193 23.3959 60.5993 22.7719C59.4795 22.1479 58.5914 21.2779 57.9348 20.1623C57.2977 19.0466 56.9791 17.7701 56.9791 16.333C56.9791 14.8958 57.2977 13.6193 57.9348 12.5037C58.5914 11.388 59.4795 10.5181 60.5993 9.89405C61.7193 9.27003 63.0128 8.95801 64.4803 8.95801C66.3146 8.95801 67.8592 9.43076 69.1142 10.3763C70.3693 11.3029 71.1705 12.5887 71.5181 14.2339H67.6083C67.4151 13.5531 67.029 13.0236 66.4497 12.6455C65.8898 12.2484 65.2237 12.0498 64.4513 12.0498C63.428 12.0498 62.5592 12.428 61.8448 13.1844C61.1304 13.9408 60.7732 14.9903 60.7732 16.333C60.7732 17.6756 61.1304 18.7251 61.8448 19.4815C62.5592 20.2379 63.428 20.6161 64.4513 20.6161C65.2237 20.6161 65.8898 20.427 66.4497 20.0488C67.029 19.6706 67.4151 19.1317 67.6083 18.432H71.5181C71.1705 20.0204 70.3693 21.2968 69.1142 22.2613C67.8592 23.2257 66.3146 23.7079 64.4803 23.7079Z" fill="white"/>
<path d="M81.1223 23.7079C79.7321 23.7079 78.4771 23.3959 77.3571 22.7719C76.2566 22.1479 75.3781 21.2874 74.7216 20.1906C74.0844 19.0749 73.7659 17.789 73.7659 16.333C73.7659 14.8769 74.0941 13.6004 74.7506 12.5037C75.407 11.388 76.2856 10.5181 77.3862 9.89405C78.506 9.27003 79.761 8.95801 81.1512 8.95801C82.5221 8.95801 83.7578 9.27003 84.8584 9.89405C85.9782 10.5181 86.8568 11.388 87.494 12.5037C88.1504 13.6004 88.4787 14.8769 88.4787 16.333C88.4787 17.789 88.1504 19.0749 87.494 20.1906C86.8568 21.2874 85.9782 22.1479 84.8584 22.7719C83.7386 23.3959 82.4931 23.7079 81.1223 23.7079ZM81.1223 20.5593C82.0877 20.5593 82.9276 20.2095 83.642 19.5098C84.3564 18.7913 84.7136 17.7323 84.7136 16.333C84.7136 14.9336 84.3564 13.8841 83.642 13.1844C82.9276 12.4658 82.0973 12.1065 81.1512 12.1065C80.1665 12.1065 79.317 12.4658 78.6026 13.1844C77.9075 13.8841 77.5599 14.9336 77.5599 16.333C77.5599 17.7323 77.9075 18.7913 78.6026 19.5098C79.317 20.2095 80.1569 20.5593 81.1223 20.5593Z" fill="white"/>
<path d="M91.214 23.3675V9.29838H94.4864L94.8049 11.1989C95.269 10.5181 95.8769 9.97915 96.6303 9.58204C97.402 9.16602 98.2909 8.95801 99.2942 8.95801C101.515 8.95801 103.089 9.7995 104.015 11.4825C104.537 10.7072 105.232 10.0926 106.1 9.63877C106.989 9.18492 107.954 8.95801 108.997 8.95801C110.87 8.95801 112.308 9.5064 113.312 10.6032C114.316 11.7 114.818 13.3073 114.818 15.4252V23.3675H111.111V15.7657C111.111 14.5554 110.87 13.6288 110.387 12.9859C109.924 12.3429 109.2 12.0214 108.215 12.0214C107.211 12.0214 106.4 12.3807 105.782 13.0993C105.183 13.8179 104.885 14.8202 104.885 16.106V23.3675H101.177V15.7657C101.177 14.5554 100.936 13.6288 100.453 12.9859C99.9707 12.3429 99.2273 12.0214 98.2231 12.0214C97.2381 12.0214 96.4371 12.3807 95.8192 13.0993C95.2205 13.8179 94.9212 14.8202 94.9212 16.106V23.3675H91.214Z" fill="white"/>
<path d="M117.758 29.6079V9.29838H121.06L121.466 11.3123C121.929 10.6883 122.538 10.1399 123.29 9.66714C124.063 9.19438 125.057 8.95801 126.273 8.95801C127.625 8.95801 128.832 9.27948 129.894 9.92242C130.956 10.5654 131.795 11.4447 132.413 12.5604C133.031 13.6761 133.341 14.9431 133.341 16.3613C133.341 17.7796 133.031 19.0466 132.413 20.1623C131.795 21.259 130.956 22.1289 129.894 22.7719C128.832 23.3959 127.625 23.7079 126.273 23.7079C125.192 23.7079 124.246 23.5094 123.435 23.1123C122.625 22.7151 121.967 22.1573 121.466 21.4387V29.6079H117.758ZM125.492 20.531C126.669 20.531 127.645 20.1433 128.417 19.368C129.189 18.5928 129.575 17.5905 129.575 16.3613C129.575 15.1322 129.189 14.1205 128.417 13.3262C127.645 12.532 126.669 12.1349 125.492 12.1349C124.294 12.1349 123.309 12.532 122.538 13.3262C121.784 14.1016 121.408 15.1038 121.408 16.333C121.408 17.5621 121.784 18.5738 122.538 19.368C123.309 20.1433 124.294 20.531 125.492 20.531Z" fill="white"/>
<path d="M141.026 23.7079C139.79 23.7079 138.775 23.5188 137.985 23.1406C137.193 22.7435 136.604 22.2234 136.218 21.5805C135.831 20.9376 135.638 20.2284 135.638 19.4531C135.638 18.1483 136.159 17.0893 137.202 16.2762C138.244 15.4631 139.809 15.0565 141.894 15.0565H145.543V14.7162C145.543 13.7517 145.263 13.0426 144.704 12.5887C144.143 12.1349 143.449 11.908 142.618 11.908C141.865 11.908 141.209 12.0876 140.648 12.4469C140.089 12.7873 139.741 13.2979 139.606 13.9787H135.986C136.082 12.9575 136.43 12.0687 137.029 11.3123C137.647 10.5559 138.438 9.97915 139.403 9.58204C140.369 9.16602 141.45 8.95801 142.647 8.95801C144.694 8.95801 146.306 9.45913 147.484 10.4614C148.662 11.4636 149.251 12.8819 149.251 14.7162V23.3675H146.093L145.746 21.0983C145.322 21.8547 144.723 22.4788 143.95 22.9704C143.198 23.4621 142.222 23.7079 141.026 23.7079ZM141.865 20.8713C142.927 20.8713 143.748 20.531 144.327 19.8503C144.925 19.1695 145.302 18.328 145.456 17.3257H142.3C141.315 17.3257 140.61 17.5054 140.185 17.8647C139.76 18.2051 139.548 18.6305 139.548 19.1411C139.548 19.6895 139.76 20.115 140.185 20.4175C140.61 20.7201 141.17 20.8713 141.865 20.8713Z" fill="white"/>
<path d="M152.209 23.3675V9.29838H155.482L155.771 11.6811C156.215 10.849 156.852 10.1872 157.683 9.6955C158.532 9.20383 159.527 8.95801 160.666 8.95801C162.442 8.95801 163.823 9.5064 164.807 10.6032C165.792 11.7 166.285 13.3073 166.285 15.4252V23.3675H162.577V15.7657C162.577 14.5554 162.327 13.6288 161.824 12.9859C161.322 12.3429 160.541 12.0214 159.479 12.0214C158.436 12.0214 157.576 12.3807 156.901 13.0993C156.244 13.8179 155.916 14.8202 155.916 16.106V23.3675H152.209Z" fill="white"/>
<path d="M170.565 29.6078L173.896 22.4314H173.027L167.437 9.29834H171.463L175.488 19.1978L179.688 9.29834H183.627L174.504 29.6078H170.565Z" fill="white"/>
<path d="M14.7259 27.1624C13.7573 28.111 12.1865 28.1097 11.2196 27.1594L1.96361 18.0631C0.999018 17.1151 1.00036 15.5812 1.96661 14.6349L11.2226 5.56974C12.1888 4.62341 13.755 4.62209 14.7229 5.5668L24.0107 14.632C24.981 15.579 24.9823 17.1174 24.0137 18.066L14.7259 27.1624Z" fill="#0328EE"/>
<path d="M27.5205 27.1585C26.5537 28.1087 24.9828 28.1101 24.0142 27.1614L14.7264 18.0651C13.7578 17.1165 13.7592 15.5781 14.7294 14.631L24.0172 5.56588C24.9851 4.62118 26.5513 4.62249 27.5175 5.56882L36.7735 14.634C37.7398 15.5803 37.7411 17.1142 36.7765 18.0621L27.5205 27.1585Z" fill="white"/>
<path d="M37.0045 27.1604C36.0368 28.1096 34.4662 28.1096 33.4984 27.1604L24.2249 18.0638C23.2582 17.1155 23.2595 15.5791 24.2279 14.6324L33.5014 5.56698C34.4685 4.62163 36.0345 4.62163 37.0016 5.56698L46.275 14.6324C47.2434 15.5791 47.2448 17.1155 46.278 18.0638L37.0045 27.1604Z" fill="#0328EE"/>
</g>
</g>
<g clip-path="url(#clip2_2_437)">
<path d="M318.303 17.896C317.04 19.9449 315.244 21.1237 312.914 21.1237C309.546 21.1237 307.076 18.4012 307.076 14.8929C307.076 11.3846 309.434 8.69021 312.97 8.69021C315.216 8.69021 317.236 9.95319 318.247 11.8617L321.502 9.2796C319.847 6.33263 316.843 4.56445 313.026 4.56445C306.908 4.56445 302.614 9.1112 302.614 14.8929C302.614 20.6746 306.992 25.2494 312.97 25.2494C316.731 25.2494 319.875 23.2567 321.587 20.422L318.303 17.896Z" fill="white"/>
<path d="M330.502 10.1777C326.011 10.1777 322.784 13.4335 322.784 17.6996C322.784 21.9376 326.011 25.2494 330.502 25.2494C334.993 25.2494 338.22 21.9376 338.22 17.6996C338.22 13.4335 334.993 10.1777 330.502 10.1777ZM330.502 13.9667C332.439 13.9667 333.898 15.4543 333.898 17.6996C333.898 19.9449 332.439 21.4605 330.502 21.4605C328.565 21.4605 327.106 19.9449 327.106 17.6996C327.106 15.4543 328.565 13.9667 330.502 13.9667Z" fill="white"/>
<path d="M341.009 10.5145V24.9126H345.275V17.4189C345.275 15.5385 346.257 13.9387 348.053 13.9387C349.625 13.9387 350.635 14.921 350.635 16.8014V24.9126H354.902V17.4189C354.902 15.5385 355.884 13.9387 357.68 13.9387C359.252 13.9387 360.234 14.921 360.234 16.8014V24.9126H364.5V16.1559C364.5 12.423 362.395 10.1777 358.943 10.1777C356.501 10.1777 355.126 11.2443 354.088 12.7037C353.105 11.1039 351.534 10.1777 349.316 10.1777C347.436 10.1777 346.033 10.9075 345.106 12.3669V10.5145H341.009Z" fill="white"/>
<path d="M375.693 13.9387C377.517 13.9387 379.033 15.4262 379.033 17.7557C379.033 20.001 377.517 21.4885 375.693 21.4885C373.785 21.4885 372.297 20.0291 372.297 17.7557C372.297 15.3981 373.785 13.9387 375.693 13.9387ZM372.101 10.5145H368.143V30.5259H372.409V23.3409C373.307 24.6881 375.02 25.2494 376.563 25.2494C380.492 25.2494 383.327 21.9937 383.327 17.6996C383.327 13.2651 380.268 10.1777 376.591 10.1777C375.188 10.1777 373.223 10.7671 372.101 12.5072V10.5145Z" fill="white"/>
<path d="M393.589 15.9594L389.66 16.7172C386.628 17.3628 384.973 18.8222 384.973 20.9553C384.973 23.4532 386.937 25.2494 389.744 25.2494C391.652 25.2494 393.056 24.4074 393.729 23.1444V24.9126H397.687V15.8472C397.687 12.3388 395.301 10.1777 391.287 10.1777C388.593 10.1777 386.432 11.3004 385.113 12.9002L387.33 15.5946C388.2 14.6123 389.435 13.8545 391.035 13.8545C392.494 13.8545 393.589 14.4158 393.589 15.8472V15.9594ZM390.698 22.0779C389.688 22.0779 389.042 21.5166 389.042 20.7027C389.042 19.9168 389.604 19.4116 390.754 19.2151L393.617 18.6538V19.0748C393.617 20.7869 392.466 22.0779 390.698 22.0779Z" fill="white"/>
<path d="M401.28 10.5145V24.9126H405.546V17.4189C405.546 15.5385 406.529 13.9387 408.381 13.9387C409.953 13.9387 410.963 14.921 410.963 16.8014V24.9126H415.229V16.1559C415.229 12.423 413.096 10.1777 409.644 10.1777C407.707 10.1777 406.304 10.9075 405.378 12.3669V10.5145H401.28Z" fill="white"/>
<path d="M422.195 24.3794L422.027 24.8565C421.409 26.9053 420.371 27.2702 419.248 27.2702C418.771 27.2702 418.041 27.2141 417.283 26.7931V30.3294C417.929 30.6382 418.855 30.8627 419.865 30.8627C422.588 30.8627 424.328 29.5716 425.759 26.0914L432.046 10.5145H427.696L424.328 19.9449L420.988 10.5145H416.526L422.195 24.3794Z" fill="white"/>
<path d="M277.21 2.61487H272.731C272.263 2.61487 271.884 2.99408 271.884 3.46186V27.309C271.884 27.7768 272.263 28.156 272.731 28.156H277.21C277.678 28.156 278.057 27.7768 278.057 27.309V3.46186C278.057 2.99408 277.678 2.61487 277.21 2.61487Z" fill="white"/>
<path d="M286.339 28.1558C289.237 28.1558 291.586 25.8065 291.586 22.9086C291.586 20.0106 289.237 17.6613 286.339 17.6613C283.441 17.6613 281.092 20.0106 281.092 22.9086C281.092 25.8065 283.441 28.1558 286.339 28.1558Z" fill="#0328EE"/>
<path d="M286.339 13.1094C289.237 13.1094 291.586 10.7601 291.586 7.86211C291.586 4.96414 289.237 2.61487 286.339 2.61487C283.441 2.61487 281.092 4.96414 281.092 7.86211C281.092 10.7601 283.441 13.1094 286.339 13.1094Z" fill="#0328EE"/>
<path d="M263.602 28.1558C266.5 28.1558 268.849 25.8065 268.849 22.9086C268.849 20.0106 266.5 17.6613 263.602 17.6613C260.704 17.6613 258.354 20.0106 258.354 22.9086C258.354 25.8065 260.704 28.1558 263.602 28.1558Z" fill="#0328EE"/>
</g>
<g clip-path="url(#clip3_2_437)">
<path d="M532.602 14.775C528.842 14.775 525.789 11.7341 525.789 7.9969C525.789 7.50943 525.847 7.04518 525.94 6.58093H516.887C513.382 6.58093 510.539 9.41286 510.539 12.8948V24.5591C510.539 28.0526 513.382 30.8729 516.887 30.8729H528.61C532.126 30.8729 534.958 28.041 534.958 24.5591V14.3456C534.239 14.6125 533.438 14.775 532.602 14.775Z" fill="#0328EE"/>
<path d="M534.969 24.5591V14.3456C534.238 14.6125 533.437 14.775 532.613 14.775C528.852 14.775 525.8 11.7341 525.8 7.9969C525.8 7.50943 525.858 7.04518 525.951 6.58093H516.898C513.416 6.58093 510.596 9.36644 510.549 12.8252C518.906 16.2722 527.495 20.4621 534.923 25.3599C534.946 25.093 534.969 24.826 534.969 24.5591Z" fill="#0328EE"/>
<path d="M533.124 12.4338C535.851 12.4338 538.056 10.2402 538.056 7.52432C538.056 4.82006 535.851 2.61487 533.124 2.61487C530.396 2.61487 528.191 4.80845 528.191 7.52432C528.191 10.2286 530.396 12.4338 533.124 12.4338Z" fill="white"/>
<path d="M563.009 18.6789C562.815 19.5039 562.487 20.3047 562.026 21.0813C561.565 21.8336 560.995 22.513 560.315 23.1197C559.636 23.7021 558.859 24.1753 557.986 24.5393C557.112 24.8791 556.178 25.0489 555.183 25.0489C554.042 25.0489 552.962 24.8305 551.943 24.3937C550.948 23.9326 550.062 23.3138 549.286 22.5373C548.534 21.7608 547.927 20.8629 547.466 19.8437C547.029 18.8002 546.811 17.6839 546.811 16.4948C546.811 15.3058 547.029 14.2016 547.466 13.1824C547.927 12.139 548.534 11.229 549.286 10.4524C550.062 9.67588 550.948 9.06921 551.943 8.6324C552.962 8.17133 554.042 7.9408 555.183 7.9408C556.178 7.9408 557.112 8.1228 557.986 8.4868C558.859 8.82654 559.636 9.29974 560.315 9.90642C560.995 10.4888 561.565 11.1683 562.026 11.9448C562.487 12.6971 562.815 13.4857 563.009 14.3108H558.823C558.629 13.874 558.362 13.4857 558.022 13.146C557.731 12.8548 557.355 12.5879 556.894 12.3452C556.433 12.0783 555.862 11.9448 555.183 11.9448C553.994 11.9448 552.999 12.3574 552.198 13.1824C551.397 14.0075 550.997 15.1116 550.997 16.4948C550.997 17.878 551.397 18.9822 552.198 19.8073C552.999 20.6323 553.994 21.0449 555.183 21.0449C555.862 21.0449 556.433 20.9235 556.894 20.6809C557.355 20.4382 557.731 20.1713 558.022 19.8801C558.362 19.5403 558.629 19.1399 558.823 18.6789H563.009Z" fill="white"/>
<path d="M569.925 16.4948C569.925 17.878 570.325 18.9822 571.126 19.8073C571.927 20.6323 572.922 21.0449 574.111 21.0449C575.3 21.0449 576.295 20.6323 577.096 19.8073C577.897 18.9822 578.297 17.878 578.297 16.4948C578.297 15.1116 577.897 14.0075 577.096 13.1824C576.295 12.3574 575.3 11.9448 574.111 11.9448C572.922 11.9448 571.927 12.3574 571.126 13.1824C570.325 14.0075 569.925 15.1116 569.925 16.4948ZM582.483 16.4948C582.483 17.6839 582.252 18.8002 581.791 19.8437C581.355 20.8629 580.748 21.7608 579.971 22.5373C579.219 23.3138 578.333 23.9326 577.314 24.3937C576.319 24.8305 575.251 25.0489 574.111 25.0489C572.97 25.0489 571.89 24.8305 570.871 24.3937C569.876 23.9326 568.991 23.3138 568.214 22.5373C567.462 21.7608 566.855 20.8629 566.394 19.8437C565.957 18.8002 565.739 17.6839 565.739 16.4948C565.739 15.3058 565.957 14.2016 566.394 13.1824C566.855 12.139 567.462 11.229 568.214 10.4524C568.991 9.67588 569.876 9.06921 570.871 8.6324C571.89 8.17133 572.97 7.9408 574.111 7.9408C575.251 7.9408 576.319 8.17133 577.314 8.6324C578.333 9.06921 579.219 9.67588 579.971 10.4524C580.748 11.229 581.355 12.139 581.791 13.1824C582.252 14.2016 582.483 15.3058 582.483 16.4948Z" fill="white"/>
<path d="M594.114 7.9408C594.963 7.9408 595.691 8.06213 596.298 8.3048C596.905 8.5232 597.402 8.76587 597.79 9.03281C598.227 9.34828 598.579 9.71228 598.846 10.1248C599.234 9.71228 599.683 9.34828 600.193 9.03281C600.63 8.76587 601.151 8.5232 601.758 8.3048C602.365 8.06213 603.032 7.9408 603.76 7.9408C605.58 7.9408 607.036 8.5232 608.128 9.68801C609.22 10.8528 609.766 12.5757 609.766 14.8568V24.8669H605.58V15.2208C605.58 14.2016 605.301 13.4008 604.743 12.8184C604.209 12.236 603.578 11.9448 602.85 11.9448C602.122 11.9448 601.479 12.236 600.921 12.8184C600.387 13.4008 600.12 14.2016 600.12 15.2208V24.8669H595.934V15.2208C595.934 14.2016 595.655 13.4008 595.097 12.8184C594.563 12.236 593.932 11.9448 593.204 11.9448C592.476 11.9448 591.833 12.236 591.275 12.8184C590.741 13.4008 590.474 14.2016 590.474 15.2208V24.8669H586.288V8.1228H589.382L590.11 9.76081C590.45 9.42108 590.826 9.11774 591.238 8.8508C591.578 8.6324 591.991 8.42613 592.476 8.232C592.961 8.03786 593.507 7.9408 594.114 7.9408Z" fill="white"/>
<path d="M622.87 7.9408C623.914 7.9408 624.909 8.1592 625.855 8.596C626.801 9.00854 627.626 9.60308 628.33 10.3796C629.058 11.1319 629.629 12.0298 630.041 13.0732C630.478 14.1167 630.696 15.2572 630.696 16.4948C630.696 17.7324 630.478 18.873 630.041 19.9165C629.629 20.9599 629.058 21.87 628.33 22.6465C627.626 23.3988 626.801 23.9933 625.855 24.4301C624.909 24.8427 623.914 25.0489 622.87 25.0489C622.166 25.0489 621.548 24.964 621.014 24.7941C620.504 24.6243 620.055 24.4422 619.667 24.2481C619.23 24.0054 618.842 23.7264 618.502 23.4109V30.691H614.316V8.1228H617.41L618.138 9.76081C618.502 9.42108 618.927 9.11774 619.412 8.8508C619.825 8.6324 620.322 8.42613 620.905 8.232C621.487 8.03786 622.142 7.9408 622.87 7.9408ZM618.138 16.4948C618.138 17.878 618.539 18.9822 619.339 19.8073C620.14 20.6323 621.135 21.0449 622.324 21.0449C623.513 21.0449 624.508 20.6323 625.309 19.8073C626.11 18.9822 626.51 17.878 626.51 16.4948C626.51 15.1116 626.11 14.0075 625.309 13.1824C624.508 12.3574 623.513 11.9448 622.324 11.9448C621.135 11.9448 620.14 12.3574 619.339 13.1824C618.539 14.0075 618.138 15.1116 618.138 16.4948Z" fill="white"/>
<path d="M641.44 7.9408C642.386 7.9408 643.26 8.11066 644.061 8.4504C644.862 8.76587 645.553 9.21481 646.136 9.79721C646.718 10.3796 647.167 11.0712 647.483 11.872C647.822 12.6728 647.992 13.5464 647.992 14.4928V24.8669H644.898L644.17 23.2289C643.782 23.5686 643.357 23.872 642.896 24.1389C642.484 24.3816 641.986 24.6 641.404 24.7941C640.821 24.964 640.166 25.0489 639.438 25.0489C637.618 25.0489 636.223 24.6121 635.252 23.7385C634.281 22.8406 633.796 21.7001 633.796 20.3169C633.796 19.4918 633.954 18.7395 634.269 18.06C634.609 17.3563 635.167 16.7618 635.944 16.2764C636.72 15.7668 637.739 15.3786 639.001 15.1116C640.287 14.8204 641.889 14.6748 643.806 14.6748C643.806 13.7527 643.551 13.0368 643.042 12.5272C642.556 12.0176 641.901 11.7628 641.076 11.7628C640.518 11.7628 640.069 11.8599 639.729 12.054C639.414 12.2482 639.159 12.4544 638.965 12.6728C638.746 12.9397 638.601 13.2431 638.528 13.5828H634.342C634.439 12.8063 634.657 12.0783 634.997 11.3988C635.361 10.7194 635.847 10.1248 636.453 9.61521C637.06 9.10561 637.776 8.7052 638.601 8.414C639.45 8.09853 640.397 7.9408 641.44 7.9408ZM640.166 21.7729C641.258 21.7729 642.132 21.4574 642.787 20.8265C643.466 20.1713 643.806 19.3341 643.806 18.3149V17.5868C642.568 17.5868 641.574 17.6475 640.821 17.7688C640.069 17.8659 639.474 18.0236 639.038 18.2421C638.625 18.4362 638.346 18.6789 638.2 18.9701C638.055 19.2613 637.982 19.5889 637.982 19.9529C637.982 20.4139 638.188 20.8386 638.601 21.2269C639.013 21.5909 639.535 21.7729 640.166 21.7729Z" fill="white"/>
<path d="M661.082 7.9408C662.077 7.9408 662.987 8.11066 663.812 8.4504C664.637 8.76587 665.341 9.23908 665.923 9.87002C666.53 10.4767 666.991 11.2168 667.306 12.0904C667.646 12.964 667.816 13.9468 667.816 15.0388V24.8669H663.63V15.5848C663.63 14.4928 663.302 13.6192 662.647 12.964C662.016 12.2846 661.191 11.9448 660.172 11.9448C659.153 11.9448 658.316 12.2846 657.66 12.964C657.029 13.6192 656.714 14.4928 656.714 15.5848V24.8669H652.528V8.1228H655.622L656.35 9.76081C656.763 9.42108 657.211 9.11774 657.697 8.8508C658.109 8.6324 658.595 8.42613 659.153 8.232C659.735 8.03786 660.378 7.9408 661.082 7.9408Z" fill="white"/>
<path d="M670.56 8.1228H674.928L679.114 19.043L682.936 8.1228H687.305C686.115 11.1804 685.036 13.9469 684.065 16.4221C683.652 17.4899 683.24 18.5334 682.827 19.5526C682.439 20.5718 682.087 21.5061 681.772 22.3554C681.456 23.1805 681.189 23.8721 680.971 24.4302C680.752 24.9884 680.619 25.316 680.57 25.413C680.158 26.408 679.745 27.2452 679.333 27.9246C678.945 28.6284 678.52 29.1987 678.059 29.6355C677.598 30.0723 677.1 30.3877 676.566 30.5819C676.033 30.776 675.426 30.8731 674.746 30.8731C674.552 30.8731 674.358 30.8609 674.164 30.8367C673.994 30.8367 673.849 30.8245 673.727 30.8003C673.557 30.776 673.412 30.7396 673.29 30.6911V27.233C674.213 27.233 674.916 27.0268 675.402 26.6142C675.911 26.2017 676.299 25.68 676.566 25.049L676.93 24.139L670.56 8.1228Z" fill="white"/>
</g>
<g clip-path="url(#clip4_2_437)">
<path d="M803.049 14.0433C803.049 12.1432 803.473 10.446 804.321 8.95176C805.188 7.43908 806.36 6.26767 807.836 5.43754C809.33 4.58896 810.999 4.16467 812.844 4.16467C815.002 4.16467 816.893 4.71809 818.517 5.82493C820.14 6.93178 821.274 8.4629 821.92 10.4183H817.465C817.022 9.49596 816.395 8.80418 815.583 8.343C814.79 7.88181 813.868 7.65122 812.816 7.65122C811.691 7.65122 810.686 7.91871 809.8 8.45368C808.933 8.97021 808.251 9.7081 807.753 10.6674C807.273 11.6266 807.033 12.752 807.033 14.0433C807.033 15.3161 807.273 16.4414 807.753 17.4191C808.251 18.3784 808.933 19.1255 809.8 19.6605C810.686 20.177 811.691 20.4353 812.816 20.4353C813.868 20.4353 814.79 20.2047 815.583 19.7435C816.395 19.2639 817.022 18.5629 817.465 17.6405H821.92C821.274 19.6144 820.14 21.1547 818.517 22.2616C816.912 23.35 815.021 23.8942 812.844 23.8942C810.999 23.8942 809.33 23.4791 807.836 22.649C806.36 21.8004 805.188 20.629 804.321 19.1347C803.473 17.6405 803.049 15.9434 803.049 14.0433Z" fill="white"/>
<path d="M832.036 23.9771C830.56 23.9771 829.232 23.6542 828.051 23.0086C826.871 22.3445 825.939 21.4129 825.257 20.2138C824.592 19.0147 824.26 17.6312 824.26 16.0632C824.26 14.4951 824.602 13.1116 825.284 11.9126C825.985 10.7135 826.935 9.7911 828.134 9.14545C829.333 8.48134 830.671 8.14929 832.147 8.14929C833.622 8.14929 834.96 8.48134 836.159 9.14545C837.358 9.7911 838.299 10.7135 838.981 11.9126C839.682 13.1116 840.033 14.4951 840.033 16.0632C840.033 17.6312 839.673 19.0147 838.954 20.2138C838.253 21.4129 837.293 22.3445 836.076 23.0086C834.877 23.6542 833.53 23.9771 832.036 23.9771ZM832.036 20.6012C832.737 20.6012 833.392 20.4352 834.001 20.1031C834.628 19.7526 835.126 19.2361 835.495 18.5536C835.864 17.871 836.048 17.0409 836.048 16.0632C836.048 14.6058 835.661 13.4898 834.886 12.715C834.13 11.9218 833.198 11.5252 832.091 11.5252C830.984 11.5252 830.053 11.9218 829.297 12.715C828.559 13.4898 828.19 14.6058 828.19 16.0632C828.19 17.5205 828.549 18.6458 829.269 19.439C830.007 20.2138 830.929 20.6012 832.036 20.6012Z" fill="white"/>
<path d="M861.912 8.17694C863.794 8.17694 865.307 8.75803 866.45 9.92021C867.612 11.064 868.194 12.6688 868.194 14.735V23.728H864.32V15.2607C864.32 14.0616 864.015 13.1485 863.406 12.5213C862.798 11.8756 861.968 11.5528 860.916 11.5528C859.865 11.5528 859.025 11.8756 858.398 12.5213C857.789 13.1485 857.485 14.0616 857.485 15.2607V23.728H853.611V15.2607C853.611 14.0616 853.307 13.1485 852.698 12.5213C852.089 11.8756 851.259 11.5528 850.207 11.5528C849.138 11.5528 848.289 11.8756 847.662 12.5213C847.053 13.1485 846.749 14.0616 846.749 15.2607V23.728H842.875V8.39831H846.749V10.2523C847.247 9.60661 847.883 9.09931 848.658 8.73036C849.451 8.36141 850.318 8.17694 851.259 8.17694C852.458 8.17694 853.528 8.4352 854.469 8.95173C855.41 9.44981 856.138 10.1693 856.655 11.1101C857.153 10.2246 857.872 9.51437 858.813 8.9794C859.772 8.44443 860.805 8.17694 861.912 8.17694Z" fill="white"/>
<path d="M875.744 10.612C876.242 9.91101 876.924 9.32992 877.791 8.86874C878.677 8.38911 879.682 8.14929 880.807 8.14929C882.117 8.14929 883.298 8.47212 884.349 9.11778C885.419 9.76343 886.259 10.6858 886.867 11.8849C887.495 13.0655 887.808 14.4398 887.808 16.0078C887.808 17.5758 887.495 18.9686 886.867 20.1861C886.259 21.3852 885.419 22.3168 884.349 22.9809C883.298 23.645 882.117 23.9771 880.807 23.9771C879.682 23.9771 878.686 23.7465 877.819 23.2853C876.97 22.8241 876.279 22.243 875.744 21.542V31.0332H871.87V8.39833H875.744V10.612ZM883.851 16.0078C883.851 15.0855 883.658 14.2922 883.27 13.6281C882.901 12.9456 882.403 12.4291 881.776 12.0786C881.167 11.7281 880.503 11.5528 879.784 11.5528C879.083 11.5528 878.419 11.7373 877.791 12.1063C877.183 12.4567 876.684 12.9732 876.297 13.6558C875.928 14.3383 875.744 15.1408 875.744 16.0632C875.744 16.9855 875.928 17.788 876.297 18.4705C876.684 19.1531 877.183 19.6788 877.791 20.0478C878.419 20.3983 879.083 20.5735 879.784 20.5735C880.503 20.5735 881.167 20.3891 881.776 20.0201C882.403 19.6512 882.901 19.1254 883.27 18.4429C883.658 17.7603 883.851 16.9486 883.851 16.0078Z" fill="white"/>
<path d="M889.627 16.0078C889.627 14.4582 889.932 13.0839 890.54 11.8849C891.167 10.6858 892.007 9.76343 893.058 9.11778C894.128 8.47212 895.318 8.14929 896.628 8.14929C897.772 8.14929 898.768 8.37988 899.616 8.84106C900.483 9.30225 901.175 9.88334 901.692 10.5843V8.39833H905.593V23.728H901.692V21.4867C901.194 22.2061 900.502 22.8057 899.616 23.2853C898.749 23.7465 897.744 23.9771 896.6 23.9771C895.309 23.9771 894.128 23.645 893.058 22.9809C892.007 22.3168 891.167 21.3852 890.54 20.1861C889.932 18.9686 889.627 17.5758 889.627 16.0078ZM901.692 16.0632C901.692 15.1223 901.507 14.3199 901.138 13.6558C900.769 12.9732 900.271 12.4567 899.644 12.1063C899.017 11.7373 898.344 11.5528 897.624 11.5528C896.905 11.5528 896.241 11.7281 895.632 12.0786C895.023 12.4291 894.525 12.9456 894.138 13.6281C893.769 14.2922 893.584 15.0855 893.584 16.0078C893.584 16.9302 893.769 17.7419 894.138 18.4429C894.525 19.1254 895.023 19.6512 895.632 20.0201C896.259 20.3891 896.923 20.5735 897.624 20.5735C898.344 20.5735 899.017 20.3983 899.644 20.0478C900.271 19.6788 900.769 19.1623 901.138 18.4982C901.507 17.8157 901.692 17.004 901.692 16.0632Z" fill="white"/>
<path d="M917.872 8.17694C919.698 8.17694 921.174 8.75803 922.299 9.92021C923.425 11.064 923.987 12.6688 923.987 14.735V23.728H920.113V15.2607C920.113 14.0432 919.809 13.1116 919.2 12.466C918.591 11.8018 917.761 11.4698 916.71 11.4698C915.64 11.4698 914.791 11.8018 914.164 12.466C913.555 13.1116 913.251 14.0432 913.251 15.2607V23.728H909.377V8.39831H913.251V10.3076C913.767 9.6435 914.422 9.12698 915.215 8.75803C916.027 8.37064 916.913 8.17694 917.872 8.17694Z" fill="white"/>
<path d="M942.337 8.39832L932.846 30.9778H928.723L932.043 23.3406L925.9 8.39832H930.245L934.201 19.107L938.214 8.39832H942.337Z" fill="white"/>
<path d="M774.003 30.8288C768.088 30.8288 763.312 26.0162 763.312 20.1381C763.312 14.2601 768.088 9.44751 774.003 9.44751C779.881 9.44751 784.694 14.2234 784.694 20.1381C784.657 26.0162 779.881 30.8288 774.003 30.8288Z" fill="#0328EE"/>
<path d="M789.805 2.61487H775.725C774.774 2.61487 774.003 3.38571 774.003 4.3366V18.4171C774.003 19.368 774.774 20.1388 775.725 20.1388H789.805C790.756 20.1388 791.527 19.368 791.527 18.4171V4.3366C791.527 3.38571 790.756 2.61487 789.805 2.61487Z" fill="white"/>
</g>
<g clip-path="url(#clip5_2_437)">
<path d="M1054.99 14.4083C1054.99 12.5083 1055.42 10.8111 1056.26 9.31686C1057.13 7.80418 1058.3 6.63278 1059.78 5.80265C1061.27 4.95407 1062.94 4.52979 1064.79 4.52979C1066.95 4.52979 1068.84 5.08321 1070.46 6.19005C1072.08 7.29689 1073.22 8.82802 1073.86 10.7834H1069.41C1068.97 9.86107 1068.34 9.16929 1067.53 8.70811C1066.73 8.24693 1065.81 8.01632 1064.76 8.01632C1063.63 8.01632 1062.63 8.28382 1061.74 8.81879C1060.88 9.33532 1060.19 10.0732 1059.7 11.0325C1059.22 11.9917 1058.98 13.117 1058.98 14.4083C1058.98 15.6812 1059.22 16.8065 1059.7 17.7842C1060.19 18.7435 1060.88 19.4906 1061.74 20.0256C1062.63 20.5421 1063.63 20.8003 1064.76 20.8003C1065.81 20.8003 1066.73 20.5698 1067.53 20.1086C1068.34 19.6289 1068.97 18.9279 1069.41 18.0056H1073.86C1073.22 19.9794 1072.08 21.5198 1070.46 22.6266C1068.85 23.715 1066.96 24.2592 1064.79 24.2592C1062.94 24.2592 1061.27 23.8442 1059.78 23.014C1058.3 22.1654 1057.13 20.994 1056.26 19.4998C1055.42 18.0056 1054.99 16.3084 1054.99 14.4083Z" fill="white"/>
<path d="M1083.98 24.3422C1082.5 24.3422 1081.17 24.0194 1079.99 23.3737C1078.81 22.7096 1077.88 21.7781 1077.2 20.579C1076.54 19.3799 1076.2 17.9963 1076.2 16.4283C1076.2 14.8603 1076.54 13.4767 1077.23 12.2777C1077.93 11.0786 1078.88 10.1562 1080.08 9.51056C1081.28 8.84645 1082.61 8.5144 1084.09 8.5144C1085.57 8.5144 1086.9 8.84645 1088.1 9.51056C1089.3 10.1562 1090.24 11.0786 1090.92 12.2777C1091.63 13.4767 1091.98 14.8603 1091.98 16.4283C1091.98 17.9963 1091.62 19.3799 1090.9 20.579C1090.2 21.7781 1089.24 22.7096 1088.02 23.3737C1086.82 24.0194 1085.47 24.3422 1083.98 24.3422ZM1083.98 20.9664C1084.68 20.9664 1085.33 20.8003 1085.94 20.4683C1086.57 20.1178 1087.07 19.6013 1087.44 18.9187C1087.81 18.2362 1087.99 17.406 1087.99 16.4283C1087.99 14.971 1087.6 13.8549 1086.83 13.0801C1086.07 12.2869 1085.14 11.8903 1084.03 11.8903C1082.93 11.8903 1082 12.2869 1081.24 13.0801C1080.5 13.8549 1080.13 14.971 1080.13 16.4283C1080.13 17.8857 1080.49 19.011 1081.21 19.8042C1081.95 20.579 1082.87 20.9664 1083.98 20.9664Z" fill="white"/>
<path d="M1113.86 8.54205C1115.74 8.54205 1117.25 9.12314 1118.39 10.2853C1119.56 11.4291 1120.14 13.034 1120.14 15.1001V24.0932H1116.26V15.6259C1116.26 14.4268 1115.96 13.5136 1115.35 12.8864C1114.74 12.2408 1113.91 11.9179 1112.86 11.9179C1111.81 11.9179 1110.97 12.2408 1110.34 12.8864C1109.73 13.5136 1109.43 14.4268 1109.43 15.6259V24.0932H1105.55V15.6259C1105.55 14.4268 1105.25 13.5136 1104.64 12.8864C1104.03 12.2408 1103.2 11.9179 1102.15 11.9179C1101.08 11.9179 1100.23 12.2408 1099.6 12.8864C1099 13.5136 1098.69 14.4268 1098.69 15.6259V24.0932H1094.82V8.76342H1098.69V10.6174C1099.19 9.97172 1099.83 9.46442 1100.6 9.09547C1101.39 8.72653 1102.26 8.54205 1103.2 8.54205C1104.4 8.54205 1105.47 8.80032 1106.41 9.31684C1107.35 9.81492 1108.08 10.5344 1108.6 11.4752C1109.1 10.5897 1109.82 9.87949 1110.76 9.34451C1111.72 8.80954 1112.75 8.54205 1113.86 8.54205Z" fill="white"/>
<path d="M1127.69 10.9771C1128.18 10.2761 1128.87 9.69503 1129.73 9.23385C1130.62 8.75422 1131.62 8.5144 1132.75 8.5144C1134.06 8.5144 1135.24 8.83723 1136.29 9.48289C1137.36 10.1285 1138.2 11.0509 1138.81 12.25C1139.44 13.4306 1139.75 14.805 1139.75 16.373C1139.75 17.941 1139.44 19.3338 1138.81 20.5513C1138.2 21.7504 1137.36 22.682 1136.29 23.3461C1135.24 24.0102 1134.06 24.3422 1132.75 24.3422C1131.62 24.3422 1130.63 24.1116 1129.76 23.6505C1128.91 23.1893 1128.22 22.6082 1127.69 21.9072V31.3983H1123.81V8.76344H1127.69V10.9771ZM1135.79 16.373C1135.79 15.4506 1135.6 14.6574 1135.21 13.9933C1134.84 13.3107 1134.35 12.7942 1133.72 12.4437C1133.11 12.0932 1132.45 11.9179 1131.73 11.9179C1131.03 11.9179 1130.36 12.1024 1129.73 12.4714C1129.13 12.8219 1128.63 13.3384 1128.24 14.0209C1127.87 14.7035 1127.69 15.506 1127.69 16.4283C1127.69 17.3507 1127.87 18.1531 1128.24 18.8357C1128.63 19.5183 1129.13 20.044 1129.73 20.413C1130.36 20.7634 1131.03 20.9387 1131.73 20.9387C1132.45 20.9387 1133.11 20.7542 1133.72 20.3853C1134.35 20.0163 1134.84 19.4906 1135.21 18.808C1135.6 18.1255 1135.79 17.3138 1135.79 16.373Z" fill="white"/>
<path d="M1141.57 16.373C1141.57 14.8234 1141.88 13.4491 1142.48 12.25C1143.11 11.0509 1143.95 10.1285 1145 9.48289C1146.07 8.83723 1147.26 8.5144 1148.57 8.5144C1149.72 8.5144 1150.71 8.74499 1151.56 9.20618C1152.43 9.66736 1153.12 10.2485 1153.64 10.9495V8.76344H1157.54V24.0932H1153.64V21.8518C1153.14 22.5713 1152.45 23.1708 1151.56 23.6505C1150.69 24.1116 1149.69 24.3422 1148.54 24.3422C1147.25 24.3422 1146.07 24.0102 1145 23.3461C1143.95 22.682 1143.11 21.7504 1142.48 20.5513C1141.88 19.3338 1141.57 17.941 1141.57 16.373ZM1153.64 16.4283C1153.64 15.4875 1153.45 14.685 1153.08 14.0209C1152.71 13.3384 1152.21 12.8219 1151.59 12.4714C1150.96 12.1024 1150.29 11.9179 1149.57 11.9179C1148.85 11.9179 1148.18 12.0932 1147.58 12.4437C1146.97 12.7942 1146.47 13.3107 1146.08 13.9933C1145.71 14.6574 1145.53 15.4506 1145.53 16.373C1145.53 17.2953 1145.71 18.107 1146.08 18.808C1146.47 19.4906 1146.97 20.0163 1147.58 20.3853C1148.2 20.7542 1148.87 20.9387 1149.57 20.9387C1150.29 20.9387 1150.96 20.7634 1151.59 20.413C1152.21 20.044 1152.71 19.5275 1153.08 18.8634C1153.45 18.1808 1153.64 17.3691 1153.64 16.4283Z" fill="white"/>
<path d="M1169.82 8.54205C1171.64 8.54205 1173.12 9.12314 1174.24 10.2853C1175.37 11.4291 1175.93 13.034 1175.93 15.1001V24.0932H1172.06V15.6259C1172.06 14.4083 1171.75 13.4767 1171.14 12.8311C1170.53 12.167 1169.7 11.8349 1168.65 11.8349C1167.58 11.8349 1166.73 12.167 1166.11 12.8311C1165.5 13.4767 1165.19 14.4083 1165.19 15.6259V24.0932H1161.32V8.76342H1165.19V10.6727C1165.71 10.0086 1166.37 9.49209 1167.16 9.12314C1167.97 8.73575 1168.86 8.54205 1169.82 8.54205Z" fill="white"/>
<path d="M1194.28 8.76343L1184.79 31.343H1180.67L1183.99 23.7058L1177.84 8.76343H1182.19L1186.14 19.4721L1190.16 8.76343H1194.28Z" fill="white"/>
<path d="M1019.6 32.424H1016.84V13.0858H1027.2V24.8267C1027.2 29.022 1023.8 32.424 1019.6 32.424Z" fill="#0328EE"/>
<path d="M1041.01 13.0858C1041.01 6.41224 1035.6 1 1028.92 1C1028.34 1 1027.76 1.04434 1027.2 1.12564V13.0858H1041.01Z" fill="#0328EE"/>
<path d="M1037.09 25.826C1039.74 24.745 1041.02 21.7212 1039.93 19.072C1038.85 16.4228 1035.83 15.1515 1033.18 16.2324C1030.53 17.3134 1029.26 20.3373 1030.34 22.9865C1031.42 25.6357 1034.45 26.907 1037.09 25.826Z" fill="white"/>
</g>
<defs>
<clipPath id="clip0_2_437">
<rect width="184" height="33" fill="white"/>
</clipPath>
<clipPath id="clip1_2_437">
<rect width="184" height="26" fill="white" transform="translate(0.217941 3.78125)"/>
</clipPath>
<clipPath id="clip2_2_437">
<rect width="175" height="29" fill="white" transform="translate(258 2.53125)"/>
</clipPath>
<clipPath id="clip3_2_437">
<rect width="177" height="29" fill="white" transform="translate(510.492 2.53125)"/>
</clipPath>
<clipPath id="clip4_2_437">
<rect width="180" height="29" fill="white" transform="translate(762.5 2.53125)"/>
</clipPath>
<clipPath id="clip5_2_437">
<rect width="179" height="32" fill="white" transform="translate(1016 1)"/>
</clipPath>
</defs>
</svg>
