<svg width="203" height="46" viewBox="0 0 203 46" fill="none" xmlns="http://www.w3.org/2000/svg">
<rect width="46" height="46" rx="23" fill="white"/>
<g clip-path="url(#clip0_2_2173)">
<path d="M22.9338 7L22.7168 7.72455V28.7492L22.9338 28.962L32.8675 23.1932L22.9338 7Z" fill="#010725"/>
<path d="M22.9347 7L13.001 23.1932L22.9347 28.9621V18.7574V7Z" fill="#010725"/>
<path d="M22.9338 30.8097L22.8115 30.9561V38.4456L22.9338 38.7965L32.8734 25.0438L22.9338 30.8097Z" fill="#010725"/>
<path d="M22.9342 38.7965V30.8097L13.0005 25.0438L22.9342 38.7965Z" fill="#010725"/>
<path d="M22.9341 28.962L32.8676 23.1933L22.9341 18.7574V28.962Z" fill="#010D50"/>
<path d="M13.0005 23.1933L22.934 28.962V18.7574L13.0005 23.1933Z" fill="#010D50"/>
</g>
<path d="M63.224 29V16.4H71.45V18.254H65.528V21.71H70.91V23.51H65.528V27.146H71.45V29H63.224ZM77.5543 29C76.6183 29 75.8683 28.772 75.3043 28.316C74.7403 27.86 74.4583 27.05 74.4583 25.886V21.998H72.9283V20.072H74.4583L74.7283 17.678H76.7623V20.072H79.1743V21.998H76.7623V25.904C76.7623 26.336 76.8523 26.636 77.0322 26.804C77.2243 26.96 77.5483 27.038 78.0043 27.038H79.1203V29H77.5543ZM81.1524 29V16.04H83.4564V21.44C83.7564 20.948 84.1584 20.564 84.6624 20.288C85.1784 20 85.7664 19.856 86.4264 19.856C87.5304 19.856 88.3824 20.204 88.9824 20.9C89.5944 21.596 89.9004 22.616 89.9004 23.96V29H87.6144V24.176C87.6144 23.408 87.4584 22.82 87.1464 22.412C86.8464 22.004 86.3664 21.8 85.7064 21.8C85.0584 21.8 84.5184 22.028 84.0864 22.484C83.6664 22.94 83.4564 23.576 83.4564 24.392V29H81.1524ZM96.4416 29.216C95.5416 29.216 94.7436 29.024 94.0476 28.64C93.3516 28.256 92.8056 27.716 92.4096 27.02C92.0136 26.324 91.8156 25.52 91.8156 24.608C91.8156 23.684 92.0076 22.862 92.3916 22.142C92.7876 21.422 93.3276 20.864 94.0116 20.468C94.7076 20.06 95.5236 19.856 96.4596 19.856C97.3356 19.856 98.1096 20.048 98.7816 20.432C99.4536 20.816 99.9756 21.344 100.348 22.016C100.732 22.676 100.924 23.414 100.924 24.23C100.924 24.362 100.918 24.5 100.906 24.644C100.906 24.788 100.9 24.938 100.888 25.094H94.1016C94.1496 25.79 94.3896 26.336 94.8216 26.732C95.2656 27.128 95.7996 27.326 96.4236 27.326C96.8916 27.326 97.2816 27.224 97.5936 27.02C97.9176 26.804 98.1576 26.528 98.3136 26.192H100.654C100.486 26.756 100.204 27.272 99.8076 27.74C99.4236 28.196 98.9436 28.556 98.3676 28.82C97.8036 29.084 97.1616 29.216 96.4416 29.216ZM96.4596 21.728C95.8956 21.728 95.3976 21.89 94.9656 22.214C94.5336 22.526 94.2576 23.006 94.1376 23.654H98.5836C98.5476 23.066 98.3316 22.598 97.9356 22.25C97.5396 21.902 97.0476 21.728 96.4596 21.728ZM102.861 29V20.072H104.913L105.129 21.746C105.453 21.17 105.891 20.714 106.443 20.378C107.007 20.03 107.667 19.856 108.423 19.856V22.286H107.775C107.271 22.286 106.821 22.364 106.425 22.52C106.029 22.676 105.717 22.946 105.489 23.33C105.273 23.714 105.165 24.248 105.165 24.932V29H102.861ZM114.178 29.216C113.278 29.216 112.48 29.024 111.784 28.64C111.088 28.256 110.542 27.716 110.146 27.02C109.75 26.324 109.552 25.52 109.552 24.608C109.552 23.684 109.744 22.862 110.128 22.142C110.524 21.422 111.064 20.864 111.748 20.468C112.444 20.06 113.26 19.856 114.196 19.856C115.072 19.856 115.846 20.048 116.518 20.432C117.19 20.816 117.712 21.344 118.084 22.016C118.468 22.676 118.66 23.414 118.66 24.23C118.66 24.362 118.654 24.5 118.642 24.644C118.642 24.788 118.636 24.938 118.624 25.094H111.838C111.886 25.79 112.126 26.336 112.558 26.732C113.002 27.128 113.536 27.326 114.16 27.326C114.628 27.326 115.018 27.224 115.33 27.02C115.654 26.804 115.894 26.528 116.05 26.192H118.39C118.222 26.756 117.94 27.272 117.544 27.74C117.16 28.196 116.68 28.556 116.104 28.82C115.54 29.084 114.898 29.216 114.178 29.216ZM114.196 21.728C113.632 21.728 113.134 21.89 112.702 22.214C112.27 22.526 111.994 23.006 111.874 23.654H116.32C116.284 23.066 116.068 22.598 115.672 22.25C115.276 21.902 114.784 21.728 114.196 21.728ZM123.946 29.216C122.83 29.216 121.966 28.868 121.354 28.172C120.754 27.476 120.454 26.456 120.454 25.112V20.072H122.74V24.896C122.74 25.664 122.896 26.252 123.208 26.66C123.52 27.068 124.012 27.272 124.684 27.272C125.32 27.272 125.842 27.044 126.25 26.588C126.67 26.132 126.88 25.496 126.88 24.68V20.072H129.184V29H127.15L126.97 27.488C126.694 28.016 126.292 28.436 125.764 28.748C125.248 29.06 124.642 29.216 123.946 29.216ZM131.549 29V20.072H133.583L133.781 21.278C134.069 20.846 134.447 20.504 134.915 20.252C135.395 19.988 135.947 19.856 136.571 19.856C137.951 19.856 138.929 20.39 139.505 21.458C139.829 20.966 140.261 20.576 140.801 20.288C141.353 20 141.953 19.856 142.601 19.856C143.765 19.856 144.659 20.204 145.283 20.9C145.907 21.596 146.219 22.616 146.219 23.96V29H143.915V24.176C143.915 23.408 143.765 22.82 143.465 22.412C143.177 22.004 142.727 21.8 142.115 21.8C141.491 21.8 140.987 22.028 140.603 22.484C140.231 22.94 140.045 23.576 140.045 24.392V29H137.741V24.176C137.741 23.408 137.591 22.82 137.291 22.412C136.991 22.004 136.529 21.8 135.905 21.8C135.293 21.8 134.795 22.028 134.411 22.484C134.039 22.94 133.853 23.576 133.853 24.392V29H131.549Z" fill="white"/>
<rect x="164" y="10" width="39" height="26" rx="13" fill="#010D50"/>
<path d="M173.116 26.5V18.1H178.456V19.132H174.388V21.748H178.096V22.756H174.388V25.468H178.456V26.5H173.116ZM182.54 26.5V19.132H180.056V18.1H186.284V19.132H183.812V26.5H182.54ZM188.074 26.5V18.1H189.346V21.7H193.414V18.1H194.686V26.5H193.414V22.744H189.346V26.5H188.074Z" fill="white"/>
<defs>
<clipPath id="clip0_2_2173">
<rect width="20" height="32" fill="white" transform="translate(13.0005 7)"/>
</clipPath>
</defs>
</svg>
