<svg width="188" height="46" viewBox="0 0 188 46" fill="none" xmlns="http://www.w3.org/2000/svg">
<rect width="46" height="46" rx="23" fill="white"/>
<g clip-path="url(#clip0_2_2197)">
<path d="M31.4359 30.7432H21.2315L23.1393 24.31L26.0675 23.4671L26.6887 21.3375L23.7605 22.2248L26.8661 11.6655V11.5324C26.8661 11.2218 26.6443 11 26.3337 11H22.3851C22.0745 11 21.8083 11.2218 21.7196 11.5324L18.0815 23.9995L15.1533 24.8868L14.4878 26.972L17.416 26.0847L14.7984 35.0024H30.3711C30.6817 35.0024 30.9479 34.7806 31.0366 34.5144L31.9239 31.4531V31.32C31.9683 30.965 31.7465 30.7432 31.4359 30.7432Z" fill="#010725"/>
</g>
<path d="M63.224 29V16.4H65.528V27.2H71.108V29H63.224ZM74.3261 18.686C73.9061 18.686 73.5581 18.56 73.2821 18.308C73.0181 18.056 72.8861 17.738 72.8861 17.354C72.8861 16.97 73.0181 16.658 73.2821 16.418C73.5581 16.166 73.9061 16.04 74.3261 16.04C74.7461 16.04 75.0881 16.166 75.3521 16.418C75.6281 16.658 75.7661 16.97 75.7661 17.354C75.7661 17.738 75.6281 18.056 75.3521 18.308C75.0881 18.56 74.7461 18.686 74.3261 18.686ZM73.1741 29V20.072H75.4781V29H73.1741ZM81.8609 29C80.9249 29 80.1749 28.772 79.6109 28.316C79.0469 27.86 78.7649 27.05 78.7649 25.886V21.998H77.2349V20.072H78.7649L79.0349 17.678H81.0689V20.072H83.4809V21.998H81.0689V25.904C81.0689 26.336 81.1589 26.636 81.3389 26.804C81.5309 26.96 81.8549 27.038 82.3109 27.038H83.4269V29H81.8609ZM89.5685 29.216C88.6685 29.216 87.8705 29.024 87.1745 28.64C86.4785 28.256 85.9325 27.716 85.5365 27.02C85.1405 26.324 84.9425 25.52 84.9425 24.608C84.9425 23.684 85.1345 22.862 85.5185 22.142C85.9145 21.422 86.4545 20.864 87.1385 20.468C87.8345 20.06 88.6505 19.856 89.5865 19.856C90.4625 19.856 91.2365 20.048 91.9085 20.432C92.5805 20.816 93.1025 21.344 93.4745 22.016C93.8585 22.676 94.0505 23.414 94.0505 24.23C94.0505 24.362 94.0445 24.5 94.0325 24.644C94.0325 24.788 94.0265 24.938 94.0145 25.094H87.2285C87.2765 25.79 87.5165 26.336 87.9485 26.732C88.3925 27.128 88.9265 27.326 89.5505 27.326C90.0185 27.326 90.4085 27.224 90.7205 27.02C91.0445 26.804 91.2845 26.528 91.4405 26.192H93.7805C93.6125 26.756 93.3305 27.272 92.9345 27.74C92.5505 28.196 92.0705 28.556 91.4945 28.82C90.9305 29.084 90.2885 29.216 89.5685 29.216ZM89.5865 21.728C89.0225 21.728 88.5245 21.89 88.0925 22.214C87.6605 22.526 87.3845 23.006 87.2645 23.654H91.7105C91.6745 23.066 91.4585 22.598 91.0625 22.25C90.6665 21.902 90.1745 21.728 89.5865 21.728ZM100.362 29.216C99.4504 29.216 98.6464 29.018 97.9504 28.622C97.2544 28.226 96.7024 27.674 96.2944 26.966C95.8984 26.258 95.7004 25.448 95.7004 24.536C95.7004 23.624 95.8984 22.814 96.2944 22.106C96.7024 21.398 97.2544 20.846 97.9504 20.45C98.6464 20.054 99.4504 19.856 100.362 19.856C101.502 19.856 102.462 20.156 103.242 20.756C104.022 21.344 104.52 22.16 104.736 23.204H102.306C102.186 22.772 101.946 22.436 101.586 22.196C101.238 21.944 100.824 21.818 100.344 21.818C99.7084 21.818 99.1684 22.058 98.7244 22.538C98.2804 23.018 98.0584 23.684 98.0584 24.536C98.0584 25.388 98.2804 26.054 98.7244 26.534C99.1684 27.014 99.7084 27.254 100.344 27.254C100.824 27.254 101.238 27.134 101.586 26.894C101.946 26.654 102.186 26.312 102.306 25.868H104.736C104.52 26.876 104.022 27.686 103.242 28.298C102.462 28.91 101.502 29.216 100.362 29.216ZM111.065 29.216C110.201 29.216 109.421 29.018 108.725 28.622C108.041 28.226 107.495 27.68 107.087 26.984C106.691 26.276 106.493 25.46 106.493 24.536C106.493 23.612 106.697 22.802 107.105 22.106C107.513 21.398 108.059 20.846 108.743 20.45C109.439 20.054 110.219 19.856 111.083 19.856C111.935 19.856 112.703 20.054 113.387 20.45C114.083 20.846 114.629 21.398 115.025 22.106C115.433 22.802 115.637 23.612 115.637 24.536C115.637 25.46 115.433 26.276 115.025 26.984C114.629 27.68 114.083 28.226 113.387 28.622C112.691 29.018 111.917 29.216 111.065 29.216ZM111.065 27.218C111.665 27.218 112.187 26.996 112.631 26.552C113.075 26.096 113.297 25.424 113.297 24.536C113.297 23.648 113.075 22.982 112.631 22.538C112.187 22.082 111.671 21.854 111.083 21.854C110.471 21.854 109.943 22.082 109.499 22.538C109.067 22.982 108.851 23.648 108.851 24.536C108.851 25.424 109.067 26.096 109.499 26.552C109.943 26.996 110.465 27.218 111.065 27.218ZM118.939 18.686C118.519 18.686 118.171 18.56 117.895 18.308C117.631 18.056 117.499 17.738 117.499 17.354C117.499 16.97 117.631 16.658 117.895 16.418C118.171 16.166 118.519 16.04 118.939 16.04C119.359 16.04 119.701 16.166 119.965 16.418C120.241 16.658 120.379 16.97 120.379 17.354C120.379 17.738 120.241 18.056 119.965 18.308C119.701 18.56 119.359 18.686 118.939 18.686ZM117.787 29V20.072H120.091V29H117.787ZM122.496 29V20.072H124.53L124.71 21.584C124.986 21.056 125.382 20.636 125.898 20.324C126.426 20.012 127.044 19.856 127.752 19.856C128.856 19.856 129.714 20.204 130.326 20.9C130.938 21.596 131.244 22.616 131.244 23.96V29H128.94V24.176C128.94 23.408 128.784 22.82 128.472 22.412C128.16 22.004 127.674 21.8 127.014 21.8C126.366 21.8 125.832 22.028 125.412 22.484C125.004 22.94 124.8 23.576 124.8 24.392V29H122.496Z" fill="white"/>
<rect x="149" y="10" width="39" height="26" rx="13" fill="#010D50"/>
<path d="M158.046 26.5V18.1H159.318V25.492H163.134V26.5H158.046ZM165.7 26.5V19.132H163.216V18.1H169.444V19.132H166.972V26.5H165.7ZM174.603 26.644C173.771 26.644 173.051 26.464 172.443 26.104C171.843 25.736 171.379 25.228 171.051 24.58C170.723 23.924 170.559 23.168 170.559 22.312C170.559 21.448 170.723 20.692 171.051 20.044C171.379 19.388 171.843 18.876 172.443 18.508C173.051 18.14 173.771 17.956 174.603 17.956C175.587 17.956 176.391 18.196 177.015 18.676C177.639 19.156 178.035 19.828 178.203 20.692H176.787C176.675 20.204 176.435 19.816 176.067 19.528C175.699 19.24 175.207 19.096 174.591 19.096C173.751 19.096 173.087 19.384 172.599 19.96C172.111 20.528 171.867 21.312 171.867 22.312C171.867 23.304 172.111 24.084 172.599 24.652C173.087 25.22 173.751 25.504 174.591 25.504C175.207 25.504 175.699 25.368 176.067 25.096C176.435 24.824 176.675 24.452 176.787 23.98H178.203C178.035 24.812 177.639 25.464 177.015 25.936C176.391 26.408 175.587 26.644 174.603 26.644Z" fill="white"/>
<defs>
<clipPath id="clip0_2_2197">
<rect width="18" height="25" fill="white" transform="translate(14 11)"/>
</clipPath>
</defs>
</svg>
