<svg width="358" height="104" viewBox="0 0 358 104" fill="none" xmlns="http://www.w3.org/2000/svg">
<g clip-path="url(#clip0_22_946)">
<g clip-path="url(#clip1_22_946)">
<path d="M71.9584 17.2655C70.8897 17.2655 69.9477 17.0383 69.1321 16.5838C68.3165 16.1294 67.6697 15.4959 67.1916 14.6834C66.7276 13.8709 66.4956 12.9412 66.4956 11.8947C66.4956 10.848 66.7276 9.91839 67.1916 9.1059C67.6697 8.29338 68.3165 7.65989 69.1321 7.20543C69.9477 6.75097 70.8897 6.52374 71.9584 6.52374C73.2943 6.52374 74.4191 6.86803 75.3331 7.5566C76.2471 8.23141 76.8307 9.16787 77.0838 10.366H74.2364C74.0957 9.8702 73.8145 9.48459 73.3927 9.20918C72.9849 8.91998 72.4998 8.77538 71.9373 8.77538C71.1921 8.77538 70.5593 9.05081 70.0391 9.60166C69.5188 10.1525 69.2587 10.9168 69.2587 11.8947C69.2587 12.8724 69.5188 13.6367 70.0391 14.1876C70.5593 14.7385 71.1921 15.0139 71.9373 15.0139C72.4998 15.0139 72.9849 14.8762 73.3927 14.6007C73.8145 14.3253 74.0957 13.9328 74.2364 13.4233H77.0838C76.8307 14.5801 76.2471 15.5096 75.3331 16.212C74.4191 16.9143 73.2943 17.2655 71.9584 17.2655Z" fill="white"/>
<path d="M84.0782 17.2655C83.0658 17.2655 82.1518 17.0383 81.3362 16.5838C80.5348 16.1294 79.895 15.5028 79.4169 14.704C78.9528 13.8915 78.7208 12.955 78.7208 11.8947C78.7208 10.8342 78.9599 9.90461 79.438 9.1059C79.916 8.29338 80.5558 7.65989 81.3574 7.20543C82.1729 6.75097 83.0869 6.52374 84.0993 6.52374C85.0977 6.52374 85.9976 6.75097 86.7991 7.20543C87.6146 7.65989 88.2544 8.29338 88.7185 9.1059C89.1966 9.90461 89.4356 10.8342 89.4356 11.8947C89.4356 12.955 89.1966 13.8915 88.7185 14.704C88.2544 15.5028 87.6146 16.1294 86.7991 16.5838C85.9836 17.0383 85.0766 17.2655 84.0782 17.2655ZM84.0782 14.9725C84.7813 14.9725 85.393 14.7178 85.9132 14.2082C86.4335 13.6849 86.6936 12.9137 86.6936 11.8947C86.6936 10.8755 86.4335 10.1112 85.9132 9.60166C85.393 9.07835 84.7883 8.8167 84.0993 8.8167C83.3822 8.8167 82.7635 9.07835 82.2432 9.60166C81.737 10.1112 81.4839 10.8755 81.4839 11.8947C81.4839 12.9137 81.737 13.6849 82.2432 14.2082C82.7635 14.7178 83.3752 14.9725 84.0782 14.9725Z" fill="white"/>
<path d="M91.4276 17.0176V6.77162H93.8107L94.0427 8.15567C94.3807 7.65989 94.8234 7.2674 95.3721 6.9782C95.9341 6.67523 96.5814 6.52374 97.3121 6.52374C98.9294 6.52374 100.075 7.13657 100.75 8.36224C101.13 7.7976 101.636 7.35003 102.269 7.01951C102.916 6.689 103.619 6.52374 104.378 6.52374C105.742 6.52374 106.789 6.92312 107.521 7.72186C108.252 8.52061 108.617 9.69117 108.617 11.2336V17.0176H105.918V11.4815C105.918 10.6001 105.742 9.92531 105.391 9.4571C105.053 8.98884 104.526 8.75472 103.809 8.75472C103.077 8.75472 102.487 9.01638 102.037 9.53969C101.601 10.063 101.383 10.7929 101.383 11.7293V17.0176H98.6834V11.4815C98.6834 10.6001 98.5074 9.92531 98.1561 9.4571C97.8047 8.98884 97.2634 8.75472 96.5321 8.75472C95.8147 8.75472 95.2314 9.01638 94.7814 9.53969C94.3454 10.063 94.1274 10.7929 94.1274 11.7293V17.0176H91.4276Z" fill="white"/>
<path d="M110.759 21.5622V6.77162H113.163L113.459 8.23829C113.796 7.78383 114.239 7.38446 114.787 7.04017C115.35 6.69589 116.074 6.52374 116.96 6.52374C117.944 6.52374 118.823 6.75785 119.597 7.22609C120.37 7.69432 120.981 8.33469 121.431 9.14722C121.881 9.95972 122.107 10.8824 122.107 11.9153C122.107 12.9482 121.881 13.8709 121.431 14.6834C120.981 15.4821 120.37 16.1156 119.597 16.5838C118.823 17.0383 117.944 17.2655 116.96 17.2655C116.173 17.2655 115.483 17.1209 114.893 16.8317C114.303 16.5425 113.824 16.1362 113.459 15.6129V21.5622H110.759ZM116.391 14.9519C117.248 14.9519 117.959 14.6696 118.521 14.1049C119.083 13.5404 119.365 12.8104 119.365 11.9153C119.365 11.0201 119.083 10.2834 118.521 9.70495C117.959 9.12656 117.248 8.83735 116.391 8.83735C115.519 8.83735 114.801 9.12656 114.239 9.70495C113.691 10.2696 113.417 10.9995 113.417 11.8947C113.417 12.7898 113.691 13.5266 114.239 14.1049C114.801 14.6696 115.519 14.9519 116.391 14.9519Z" fill="white"/>
<path d="M127.703 17.2655C126.803 17.2655 126.065 17.1278 125.489 16.8524C124.912 16.5632 124.483 16.1844 124.202 15.7162C123.921 15.248 123.78 14.7315 123.78 14.1669C123.78 13.2167 124.159 12.4455 124.919 11.8533C125.678 11.2611 126.817 10.965 128.336 10.965H130.993V10.7172C130.993 10.0148 130.789 9.49836 130.382 9.16787C129.974 8.83735 129.468 8.6721 128.863 8.6721C128.315 8.6721 127.837 8.80292 127.429 9.06458C127.021 9.31248 126.768 9.68432 126.669 10.1801H124.033C124.103 9.4364 124.357 8.78915 124.793 8.23829C125.243 7.68744 125.819 7.2674 126.522 6.9782C127.225 6.67523 128.013 6.52374 128.884 6.52374C130.375 6.52374 131.549 6.88869 132.407 7.61858C133.265 8.34846 133.693 9.38136 133.693 10.7172V17.0176H131.394L131.141 15.365C130.832 15.9159 130.396 16.3704 129.833 16.7284C129.285 17.0865 128.575 17.2655 127.703 17.2655ZM128.315 15.1998C129.088 15.1998 129.686 14.9519 130.107 14.4561C130.543 13.9604 130.818 13.3475 130.93 12.6176H128.631C127.914 12.6176 127.401 12.7485 127.091 13.0101C126.782 13.258 126.627 13.5678 126.627 13.9397C126.627 14.3391 126.782 14.649 127.091 14.8692C127.401 15.0896 127.809 15.1998 128.315 15.1998Z" fill="white"/>
<path d="M135.848 17.0176V6.77162H138.231L138.442 8.50683C138.765 7.90089 139.229 7.41889 139.834 7.06083C140.453 6.70277 141.177 6.52374 142.007 6.52374C143.3 6.52374 144.306 6.92312 145.023 7.72186C145.74 8.52061 146.099 9.69117 146.099 11.2336V17.0176H143.399V11.4815C143.399 10.6001 143.216 9.92531 142.85 9.4571C142.485 8.98884 141.915 8.75472 141.142 8.75472C140.383 8.75472 139.757 9.01638 139.265 9.53969C138.787 10.063 138.547 10.7929 138.547 11.7293V17.0176H135.848Z" fill="white"/>
<path d="M149.216 21.5623L151.641 16.336H151.009L146.938 6.77167H149.87L152.801 13.9811L155.86 6.77167H158.729L152.085 21.5623H149.216Z" fill="white"/>
<path d="M35.7243 19.7813C35.0189 20.4721 33.875 20.4711 33.1708 19.7791L26.43 13.1546C25.7276 12.4643 25.7285 11.3472 26.4322 10.658L33.173 4.05621C33.8767 3.36703 35.0173 3.36607 35.7221 4.05406L42.4861 10.6559C43.1927 11.3456 43.1937 12.4659 42.4883 13.1568L35.7243 19.7813Z" fill="#0328EE"/>
<path d="M45.0422 19.7785C44.338 20.4705 43.194 20.4715 42.4886 19.7806L35.7247 13.1561C35.0193 12.4653 35.0203 11.3449 35.7269 10.6552L42.4908 4.05345C43.1957 3.36546 44.3363 3.36642 45.04 4.05559L51.7808 10.6574C52.4844 11.3466 52.4854 12.4636 51.783 13.154L45.0422 19.7785Z" fill="white"/>
<path d="M51.9489 19.7798C51.2441 20.4711 50.1003 20.4711 49.3955 19.7798L42.642 13.1551C41.938 12.4645 41.9389 11.3456 42.6442 10.6562L49.3977 4.05419C50.102 3.36573 51.2425 3.36573 51.9467 4.05419L58.7002 10.6562C59.4055 11.3456 59.4065 12.4645 58.7024 13.1551L51.9489 19.7798Z" fill="#0328EE"/>
</g>
</g>
<g clip-path="url(#clip2_22_946)">
<path d="M246.193 13.0329C245.274 14.525 243.965 15.3835 242.269 15.3835C239.816 15.3835 238.018 13.4008 238.018 10.8459C238.018 8.29093 239.735 6.32873 242.31 6.32873C243.945 6.32873 245.417 7.2485 246.153 8.63841L248.524 6.75796C247.318 4.61179 245.131 3.3241 242.351 3.3241C237.895 3.3241 234.768 6.63532 234.768 10.8459C234.768 15.0565 237.956 18.3881 242.31 18.3881C245.049 18.3881 247.338 16.9369 248.585 14.8725L246.193 13.0329Z" fill="white"/>
<path d="M255.078 7.41199C251.807 7.41199 249.457 9.783 249.457 12.8898C249.457 15.9762 251.807 18.3881 255.078 18.3881C258.348 18.3881 260.699 15.9762 260.699 12.8898C260.699 9.783 258.348 7.41199 255.078 7.41199ZM255.078 10.1713C256.488 10.1713 257.551 11.2547 257.551 12.8898C257.551 14.525 256.488 15.6287 255.078 15.6287C253.667 15.6287 252.605 14.525 252.605 12.8898C252.605 11.2547 253.667 10.1713 255.078 10.1713Z" fill="white"/>
<path d="M262.729 7.65726V18.1428H265.836V12.6854C265.836 11.316 266.551 10.1509 267.86 10.1509C269.004 10.1509 269.74 10.8663 269.74 12.2357V18.1428H272.847V12.6854C272.847 11.316 273.562 10.1509 274.87 10.1509C276.015 10.1509 276.73 10.8663 276.73 12.2357V18.1428H279.837V11.7656C279.837 9.04715 278.304 7.41199 275.79 7.41199C274.012 7.41199 273.01 8.18869 272.254 9.25152C271.539 8.0865 270.394 7.41199 268.779 7.41199C267.41 7.41199 266.388 7.94341 265.713 9.00627V7.65726H262.729Z" fill="white"/>
<path d="M287.988 10.1509C289.317 10.1509 290.421 11.2342 290.421 12.9307C290.421 14.5659 289.317 15.6491 287.988 15.6491C286.599 15.6491 285.515 14.5863 285.515 12.9307C285.515 11.2137 286.599 10.1509 287.988 10.1509ZM285.373 7.65726H282.49V22.2307H285.597V16.9982C286.251 17.9793 287.498 18.3881 288.622 18.3881C291.483 18.3881 293.548 16.0171 293.548 12.8898C293.548 9.66036 291.32 7.41199 288.642 7.41199C287.621 7.41199 286.19 7.84122 285.373 9.10847V7.65726Z" fill="white"/>
<path d="M301.021 11.6225L298.16 12.1744C295.952 12.6446 294.747 13.7074 294.747 15.2608C294.747 17.08 296.177 18.3881 298.221 18.3881C299.611 18.3881 300.633 17.7749 301.123 16.8551V18.1428H304.006V11.5408C304.006 8.98584 302.268 7.41199 299.345 7.41199C297.383 7.41199 295.809 8.22957 294.849 9.39462L296.463 11.3568C297.097 10.6415 297.996 10.0896 299.161 10.0896C300.224 10.0896 301.021 10.4984 301.021 11.5408V11.6225ZM298.916 16.0784C298.18 16.0784 297.71 15.6696 297.71 15.0769C297.71 14.5045 298.119 14.1366 298.957 13.9935L301.042 13.5847V13.8913C301.042 15.1382 300.204 16.0784 298.916 16.0784Z" fill="white"/>
<path d="M306.622 7.65726V18.1428H309.729V12.6854C309.729 11.316 310.445 10.1509 311.794 10.1509C312.939 10.1509 313.674 10.8663 313.674 12.2357V18.1428H316.781V11.7656C316.781 9.04715 315.228 7.41199 312.714 7.41199C311.303 7.41199 310.281 7.94341 309.607 9.00627V7.65726H306.622Z" fill="white"/>
<path d="M321.854 17.7545L321.732 18.102C321.282 19.594 320.526 19.8598 319.708 19.8598C319.36 19.8598 318.829 19.8189 318.277 19.5123V22.0877C318.747 22.3125 319.422 22.476 320.157 22.476C322.14 22.476 323.407 21.5358 324.449 19.0013L329.028 7.65729H325.86L323.407 14.525L320.975 7.65729H317.725L321.854 17.7545Z" fill="white"/>
<path d="M216.267 1.9043H213.005C212.664 1.9043 212.388 2.18046 212.388 2.52113V19.8881C212.388 20.2288 212.664 20.5049 213.005 20.5049H216.267C216.608 20.5049 216.884 20.2288 216.884 19.8881V2.52113C216.884 2.18046 216.608 1.9043 216.267 1.9043Z" fill="white"/>
<path d="M222.915 20.5047C225.026 20.5047 226.737 18.7938 226.737 16.6834C226.737 14.5729 225.026 12.862 222.915 12.862C220.805 12.862 219.094 14.5729 219.094 16.6834C219.094 18.7938 220.805 20.5047 222.915 20.5047Z" fill="#0328EE"/>
<path d="M222.915 9.54702C225.026 9.54702 226.737 7.83614 226.737 5.72566C226.737 3.61518 225.026 1.9043 222.915 1.9043C220.805 1.9043 219.094 3.61518 219.094 5.72566C219.094 7.83614 220.805 9.54702 222.915 9.54702Z" fill="#0328EE"/>
<path d="M206.357 20.5047C208.467 20.5047 210.178 18.7938 210.178 16.6834C210.178 14.5729 208.467 12.862 206.357 12.862C204.246 12.862 202.535 14.5729 202.535 16.6834C202.535 18.7938 204.246 20.5047 206.357 20.5047Z" fill="#0328EE"/>
</g>
<g clip-path="url(#clip3_22_946)">
<path d="M55.9865 50.2271C55.9865 48.8434 56.2955 47.6074 56.9134 46.5192C57.5449 45.4176 58.3979 44.5645 59.4726 43.9599C60.5609 43.342 61.7767 43.033 63.1201 43.033C64.6919 43.033 66.069 43.436 67.2513 44.2421C68.4334 45.0481 69.2597 46.1632 69.7299 47.5872H66.4855C66.163 46.9155 65.7063 46.4117 65.1151 46.0759C64.5375 45.74 63.8657 45.5721 63.1 45.5721C62.2804 45.5721 61.5483 45.7669 60.9035 46.1565C60.272 46.5326 59.7749 47.07 59.4122 47.7686C59.0629 48.4672 58.8883 49.2867 58.8883 50.2271C58.8883 51.1541 59.0629 51.9736 59.4122 52.6856C59.7749 53.3842 60.272 53.9283 60.9035 54.3179C61.5483 54.6941 62.2804 54.8822 63.1 54.8822C63.8657 54.8822 64.5375 54.7142 65.1151 54.3784C65.7063 54.0291 66.163 53.5186 66.4855 52.8468H69.7299C69.2597 54.2844 68.4334 55.4061 67.2513 56.2122C66.0824 57.0048 64.7054 57.4012 63.1201 57.4012C61.7767 57.4012 60.5609 57.0989 59.4726 56.4943C58.3979 55.8763 57.5449 55.0232 56.9134 53.935C56.2955 52.8468 55.9865 51.6109 55.9865 50.2271Z" fill="white"/>
<path d="M77.0969 57.4616C76.0221 57.4616 75.0548 57.2265 74.195 56.7563C73.3352 56.2727 72.6568 55.5942 72.1597 54.721C71.6761 53.8477 71.4342 52.8401 71.4342 51.6982C71.4342 50.5562 71.6828 49.5487 72.1799 48.6754C72.6904 47.8022 73.3822 47.1305 74.2555 46.6603C75.1287 46.1766 76.1027 45.9348 77.1775 45.9348C78.2523 45.9348 79.2262 46.1766 80.0995 46.6603C80.9727 47.1305 81.6579 47.8022 82.1549 48.6754C82.6654 49.5487 82.9207 50.5562 82.9207 51.6982C82.9207 52.8401 82.6587 53.8477 82.1348 54.721C81.6243 55.5942 80.9257 56.2727 80.039 56.7563C79.1658 57.2265 78.185 57.4616 77.0969 57.4616ZM77.0969 55.0031C77.6074 55.0031 78.0843 54.8822 78.5276 54.6403C78.9845 54.3851 79.3471 54.0089 79.6159 53.5119C79.8845 53.0148 80.0189 52.4103 80.0189 51.6982C80.0189 50.6369 79.7367 49.8241 79.1725 49.2599C78.6217 48.6822 77.9433 48.3933 77.1371 48.3933C76.3311 48.3933 75.6527 48.6822 75.1019 49.2599C74.5645 49.8241 74.2958 50.6369 74.2958 51.6982C74.2958 52.7595 74.5578 53.579 75.0817 54.1567C75.6191 54.721 76.2908 55.0031 77.0969 55.0031Z" fill="white"/>
<path d="M98.8546 45.955C100.225 45.955 101.327 46.3781 102.159 47.2245C103.006 48.0575 103.429 49.2262 103.429 50.7309V57.2802H100.608V51.1138C100.608 50.2405 100.386 49.5756 99.9424 49.1188C99.4997 48.6486 98.8949 48.4135 98.1292 48.4135C97.3634 48.4135 96.7521 48.6486 96.2953 49.1188C95.852 49.5756 95.6303 50.2405 95.6303 51.1138V57.2802H92.8091V51.1138C92.8091 50.2405 92.5875 49.5756 92.1441 49.1188C91.7008 48.6486 91.0962 48.4135 90.3304 48.4135C89.5513 48.4135 88.9333 48.6486 88.4765 49.1188C88.0331 49.5756 87.8114 50.2405 87.8114 51.1138V57.2802H84.9902V46.1162H87.8114V47.4663C88.1742 46.9961 88.6377 46.6267 89.2019 46.358C89.7796 46.0893 90.411 45.955 91.0962 45.955C91.9695 45.955 92.7486 46.143 93.4338 46.5192C94.119 46.8819 94.6496 47.4059 95.0258 48.091C95.3885 47.4462 95.9125 46.929 96.5976 46.5394C97.2962 46.1498 98.0485 45.955 98.8546 45.955Z" fill="white"/>
<path d="M108.928 47.7283C109.29 47.2178 109.787 46.7946 110.418 46.4588C111.064 46.1095 111.796 45.9348 112.615 45.9348C113.569 45.9348 114.429 46.1699 115.194 46.6401C115.974 47.1103 116.585 47.7821 117.028 48.6553C117.486 49.5151 117.713 50.516 117.713 51.6579C117.713 52.7998 117.486 53.8141 117.028 54.7008C116.585 55.574 115.974 56.2525 115.194 56.7361C114.429 57.2198 113.569 57.4616 112.615 57.4616C111.796 57.4616 111.07 57.2937 110.439 56.9578C109.821 56.6219 109.317 56.1987 108.928 55.6882V62.6003H106.106V46.1162H108.928V47.7283ZM114.832 51.6579C114.832 50.9862 114.691 50.4085 114.409 49.9248C114.14 49.4278 113.777 49.0516 113.321 48.7964C112.877 48.5411 112.394 48.4135 111.87 48.4135C111.359 48.4135 110.876 48.5478 110.418 48.8165C109.976 49.0718 109.612 49.4479 109.33 49.945C109.062 50.4421 108.928 51.0265 108.928 51.6982C108.928 52.3699 109.062 52.9543 109.33 53.4514C109.612 53.9485 109.976 54.3313 110.418 54.6001C110.876 54.8553 111.359 54.9829 111.87 54.9829C112.394 54.9829 112.877 54.8486 113.321 54.5799C113.777 54.3112 114.14 53.9283 114.409 53.4313C114.691 52.9342 114.832 52.343 114.832 51.6579Z" fill="white"/>
<path d="M119.038 51.6579C119.038 50.5294 119.26 49.5285 119.703 48.6553C120.16 47.7821 120.771 47.1103 121.537 46.6401C122.316 46.1699 123.183 45.9348 124.137 45.9348C124.97 45.9348 125.695 46.1027 126.313 46.4386C126.944 46.7745 127.448 47.1977 127.825 47.7082V46.1162H130.666V57.2802H127.825V55.648C127.462 56.1719 126.958 56.6085 126.313 56.9578C125.681 57.2937 124.95 57.4616 124.116 57.4616C123.176 57.4616 122.316 57.2198 121.537 56.7361C120.771 56.2525 120.16 55.574 119.703 54.7008C119.26 53.8141 119.038 52.7998 119.038 51.6579ZM127.825 51.6982C127.825 51.013 127.69 50.4287 127.421 49.945C127.152 49.4479 126.79 49.0718 126.333 48.8165C125.877 48.5478 125.386 48.4135 124.862 48.4135C124.338 48.4135 123.855 48.5411 123.411 48.7964C122.968 49.0516 122.605 49.4278 122.323 49.9248C122.055 50.4085 121.92 50.9862 121.92 51.6579C121.92 52.3296 122.055 52.9208 122.323 53.4313C122.605 53.9283 122.968 54.3112 123.411 54.5799C123.868 54.8486 124.352 54.9829 124.862 54.9829C125.386 54.9829 125.877 54.8553 126.333 54.6001C126.79 54.3313 127.152 53.9552 127.421 53.4715C127.69 52.9745 127.825 52.3834 127.825 51.6982Z" fill="white"/>
<path d="M139.608 45.955C140.938 45.955 142.013 46.3781 142.832 47.2245C143.652 48.0575 144.061 49.2262 144.061 50.7309V57.2802H141.24V51.1138C141.24 50.2271 141.018 49.5487 140.575 49.0785C140.131 48.5948 139.527 48.353 138.762 48.353C137.982 48.353 137.364 48.5948 136.907 49.0785C136.464 49.5487 136.243 50.2271 136.243 51.1138V57.2802H133.421V46.1162H136.243V47.5066C136.618 47.023 137.095 46.6468 137.673 46.3781C138.264 46.096 138.909 45.955 139.608 45.955Z" fill="white"/>
<path d="M157.425 46.1161L150.513 62.5599H147.51L149.928 56.998L145.454 46.1161H148.619L151.5 53.9149L154.422 46.1161H157.425Z" fill="white"/>
<path d="M34.8338 62.4514C30.5263 62.4514 27.0482 58.9466 27.0482 54.6658C27.0482 50.3851 30.5263 46.8802 34.8338 46.8802C39.1146 46.8802 42.6195 50.3584 42.6195 54.6658C42.5927 58.9466 39.1146 62.4514 34.8338 62.4514Z" fill="#0328EE"/>
<path d="M46.3418 41.9043H36.0876C35.3951 41.9043 34.8337 42.4657 34.8337 43.1582V53.4124C34.8337 54.1049 35.3951 54.6663 36.0876 54.6663H46.3418C47.0343 54.6663 47.5957 54.1049 47.5957 53.4124V43.1582C47.5957 42.4657 47.0343 41.9043 46.3418 41.9043Z" fill="white"/>
</g>
<g clip-path="url(#clip4_22_946)">
<path d="M217.645 50.76C214.906 50.76 212.683 48.5455 212.683 45.8239C212.683 45.4689 212.726 45.1308 212.793 44.7927H206.2C203.648 44.7927 201.577 46.855 201.577 49.3908V57.8854C201.577 60.4296 203.648 62.4835 206.2 62.4835H214.737C217.299 62.4835 219.361 60.4212 219.361 57.8854V50.4473C218.837 50.6417 218.254 50.76 217.645 50.76Z" fill="#0328EE"/>
<path d="M219.369 57.8854V50.4473C218.836 50.6417 218.253 50.76 217.653 50.76C214.914 50.76 212.691 48.5455 212.691 45.8239C212.691 45.4689 212.734 45.1308 212.801 44.7927H206.208C203.673 44.7927 201.619 46.8212 201.585 49.3401C207.671 51.8504 213.925 54.9017 219.335 58.4686C219.352 58.2742 219.369 58.0798 219.369 57.8854Z" fill="#0328EE"/>
<path d="M218.025 49.055C220.011 49.055 221.617 47.4575 221.617 45.4797C221.617 43.5103 220.011 41.9043 218.025 41.9043C216.038 41.9043 214.432 43.5018 214.432 45.4797C214.432 47.4491 216.038 49.055 218.025 49.055Z" fill="white"/>
<path d="M239.789 53.6031C239.648 54.2039 239.409 54.7871 239.073 55.3527C238.738 55.9006 238.322 56.3954 237.827 56.8372C237.333 57.2613 236.767 57.6059 236.131 57.871C235.495 58.1185 234.814 58.2422 234.09 58.2422C233.259 58.2422 232.473 58.0831 231.73 57.765C231.006 57.4292 230.361 56.9785 229.795 56.4131C229.247 55.8476 228.806 55.1937 228.47 54.4514C228.152 53.6915 227.993 52.8785 227.993 52.0125C227.993 51.1466 228.152 50.3425 228.47 49.6002C228.806 48.8403 229.247 48.1776 229.795 47.6121C230.361 47.0465 231.006 46.6047 231.73 46.2866C232.473 45.9508 233.259 45.783 234.09 45.783C234.814 45.783 235.495 45.9155 236.131 46.1806C236.767 46.428 237.333 46.7726 237.827 47.2144C238.322 47.6386 238.738 48.1334 239.073 48.6989C239.409 49.2468 239.648 49.8211 239.789 50.422H236.74C236.599 50.1039 236.405 49.8211 236.157 49.5737C235.945 49.3617 235.671 49.1673 235.336 48.9905C235 48.7961 234.584 48.6989 234.09 48.6989C233.224 48.6989 232.499 48.9994 231.916 49.6002C231.333 50.2011 231.041 51.0052 231.041 52.0125C231.041 53.0199 231.333 53.824 231.916 54.4249C232.499 55.0257 233.224 55.3262 234.09 55.3262C234.584 55.3262 235 55.2378 235.336 55.0611C235.671 54.8844 235.945 54.69 236.157 54.4779C236.405 54.2305 236.599 53.9389 236.74 53.6031H239.789Z" fill="white"/>
<path d="M244.826 52.0125C244.826 53.0199 245.117 53.824 245.701 54.4249C246.284 55.0257 247.008 55.3262 247.874 55.3262C248.74 55.3262 249.465 55.0257 250.048 54.4249C250.631 53.824 250.923 53.0199 250.923 52.0125C250.923 51.0052 250.631 50.2011 250.048 49.6002C249.465 48.9994 248.74 48.6989 247.874 48.6989C247.008 48.6989 246.284 48.9994 245.701 49.6002C245.117 50.2011 244.826 51.0052 244.826 52.0125ZM253.971 52.0125C253.971 52.8785 253.803 53.6915 253.468 54.4514C253.15 55.1937 252.708 55.8476 252.142 56.4131C251.594 56.9785 250.949 57.4292 250.207 57.765C249.482 58.0831 248.705 58.2422 247.874 58.2422C247.044 58.2422 246.257 58.0831 245.515 57.765C244.79 57.4292 244.145 56.9785 243.58 56.4131C243.032 55.8476 242.59 55.1937 242.254 54.4514C241.936 53.6915 241.777 52.8785 241.777 52.0125C241.777 51.1466 241.936 50.3425 242.254 49.6002C242.59 48.8403 243.032 48.1776 243.58 47.6121C244.145 47.0465 244.79 46.6047 245.515 46.2866C246.257 45.9508 247.044 45.783 247.874 45.783C248.705 45.783 249.482 45.9508 250.207 46.2866C250.949 46.6047 251.594 47.0465 252.142 47.6121C252.708 48.1776 253.15 48.8403 253.468 49.6002C253.803 50.3425 253.971 51.1466 253.971 52.0125Z" fill="white"/>
<path d="M262.442 45.783C263.06 45.783 263.59 45.8713 264.032 46.048C264.474 46.2071 264.836 46.3838 265.119 46.5782C265.437 46.808 265.694 47.0731 265.888 47.3735C266.171 47.0731 266.498 46.808 266.869 46.5782C267.187 46.3838 267.567 46.2071 268.009 46.048C268.45 45.8713 268.936 45.783 269.467 45.783C270.792 45.783 271.852 46.2071 272.648 47.0554C273.443 47.9037 273.841 49.1584 273.841 50.8196V58.1096H270.792V51.0847C270.792 50.3425 270.589 49.7593 270.182 49.3352C269.794 48.911 269.334 48.6989 268.804 48.6989C268.274 48.6989 267.805 48.911 267.399 49.3352C267.01 49.7593 266.816 50.3425 266.816 51.0847V58.1096H263.767V51.0847C263.767 50.3425 263.564 49.7593 263.157 49.3352C262.769 48.911 262.309 48.6989 261.779 48.6989C261.249 48.6989 260.781 48.911 260.374 49.3352C259.985 49.7593 259.791 50.3425 259.791 51.0847V58.1096H256.742V45.9155H258.996L259.526 47.1084C259.773 46.861 260.047 46.6401 260.348 46.4457C260.595 46.2866 260.895 46.1364 261.249 45.995C261.602 45.8536 262 45.783 262.442 45.783Z" fill="white"/>
<path d="M283.384 45.783C284.144 45.783 284.869 45.942 285.558 46.2601C286.247 46.5606 286.847 46.9935 287.36 47.5591C287.89 48.1069 288.306 48.7608 288.606 49.5207C288.924 50.2807 289.083 51.1112 289.083 52.0125C289.083 52.9138 288.924 53.7445 288.606 54.5044C288.306 55.2643 287.89 55.9271 287.36 56.4926C286.847 57.0405 286.247 57.4734 285.558 57.7915C284.869 58.092 284.144 58.2422 283.384 58.2422C282.871 58.2422 282.421 58.1803 282.032 58.0566C281.661 57.9329 281.334 57.8003 281.051 57.659C280.733 57.4822 280.45 57.279 280.203 57.0493V62.3511H277.154V45.9155H279.407L279.938 47.1084C280.203 46.861 280.512 46.6401 280.865 46.4457C281.166 46.2866 281.528 46.1364 281.953 45.995C282.377 45.8536 282.854 45.783 283.384 45.783ZM279.938 52.0125C279.938 53.0199 280.23 53.824 280.812 54.4249C281.396 55.0257 282.12 55.3262 282.986 55.3262C283.852 55.3262 284.577 55.0257 285.16 54.4249C285.743 53.824 286.035 53.0199 286.035 52.0125C286.035 51.0052 285.743 50.2011 285.16 49.6002C284.577 48.9994 283.852 48.6989 282.986 48.6989C282.12 48.6989 281.396 48.9994 280.812 49.6002C280.23 50.2011 279.938 51.0052 279.938 52.0125Z" fill="white"/>
<path d="M296.908 45.783C297.596 45.783 298.233 45.9067 298.816 46.1541C299.4 46.3838 299.903 46.7108 300.327 47.1349C300.751 47.5591 301.078 48.0627 301.308 48.6459C301.555 49.2291 301.679 49.8653 301.679 50.5546V58.1096H299.426L298.896 56.9167C298.613 57.1641 298.304 57.3851 297.968 57.5794C297.668 57.7562 297.305 57.9152 296.881 58.0566C296.457 58.1803 295.98 58.2422 295.45 58.2422C294.124 58.2422 293.108 57.9241 292.401 57.2878C291.694 56.6339 291.341 55.8034 291.341 54.796C291.341 54.1951 291.456 53.6473 291.685 53.1524C291.933 52.6399 292.339 52.207 292.905 51.8535C293.47 51.4824 294.212 51.1997 295.131 51.0052C296.068 50.7931 297.235 50.6871 298.631 50.6871C298.631 50.0156 298.445 49.4942 298.074 49.1231C297.72 48.752 297.243 48.5664 296.642 48.5664C296.236 48.5664 295.909 48.6371 295.661 48.7785C295.432 48.9198 295.246 49.0701 295.105 49.2291C294.946 49.4235 294.84 49.6445 294.787 49.8918H291.738C291.809 49.3263 291.968 48.7961 292.215 48.3013C292.48 47.8065 292.834 47.3735 293.276 47.0024C293.718 46.6312 294.239 46.3396 294.84 46.1276C295.458 45.8978 296.148 45.783 296.908 45.783ZM295.98 55.8564C296.775 55.8564 297.411 55.6266 297.888 55.1671C298.383 54.69 298.631 54.0803 298.631 53.338V52.8078C297.729 52.8078 297.005 52.852 296.457 52.9403C295.909 53.0111 295.476 53.1259 295.158 53.285C294.857 53.4264 294.654 53.6031 294.548 53.8152C294.442 54.0273 294.389 54.2659 294.389 54.5309C294.389 54.8667 294.539 55.176 294.84 55.4587C295.14 55.7238 295.52 55.8564 295.98 55.8564Z" fill="white"/>
<path d="M311.212 45.783C311.937 45.783 312.599 45.9067 313.2 46.1541C313.801 46.3838 314.314 46.7284 314.738 47.1879C315.18 47.6297 315.515 48.1688 315.745 48.805C315.992 49.4412 316.116 50.1569 316.116 50.9522V58.1096H313.068V51.3498C313.068 50.5546 312.829 49.9184 312.352 49.4412C311.892 48.9464 311.291 48.6989 310.549 48.6989C309.807 48.6989 309.198 48.9464 308.72 49.4412C308.26 49.9184 308.031 50.5546 308.031 51.3498V58.1096H304.983V45.9155H307.236L307.766 47.1084C308.067 46.861 308.393 46.6401 308.747 46.4457C309.047 46.2866 309.401 46.1364 309.807 45.995C310.231 45.8536 310.699 45.783 311.212 45.783Z" fill="white"/>
<path d="M318.115 45.9155H321.296L324.344 53.8682L327.127 45.9155H330.309C329.443 48.1423 328.657 50.157 327.95 51.9595C327.649 52.7372 327.349 53.4971 327.048 54.2394C326.766 54.9816 326.509 55.662 326.28 56.2805C326.05 56.8814 325.855 57.3851 325.696 57.7915C325.537 58.198 325.44 58.4366 325.404 58.5073C325.104 59.2319 324.804 59.8416 324.504 60.3364C324.221 60.8489 323.911 61.2642 323.576 61.5823C323.24 61.9005 322.877 62.1301 322.488 62.2716C322.1 62.4129 321.658 62.4836 321.163 62.4836C321.022 62.4836 320.88 62.4748 320.739 62.4571C320.615 62.4571 320.51 62.4483 320.421 62.4306C320.297 62.4129 320.192 62.3864 320.103 62.3511V59.8327C320.775 59.8327 321.287 59.6825 321.641 59.3821C322.011 59.0816 322.294 58.7017 322.488 58.2422L322.754 57.5795L318.115 45.9155Z" fill="white"/>
</g>
<g clip-path="url(#clip5_22_946)">
<g clip-path="url(#clip6_22_946)">
<path d="M141.853 90.493C141.853 89.1093 142.161 87.8733 142.779 86.7851C143.411 85.6835 144.264 84.8304 145.339 84.2259C146.427 83.6079 147.643 83.2989 148.986 83.2989C150.558 83.2989 151.935 83.7019 153.117 84.508C154.3 85.3141 155.126 86.4291 155.596 87.8532H152.352C152.029 87.1815 151.572 86.6777 150.981 86.3418C150.404 86.0059 149.732 85.838 148.966 85.838C148.147 85.838 147.414 86.0328 146.77 86.4224C146.138 86.7986 145.641 87.3359 145.278 88.0346C144.929 88.7331 144.754 89.5526 144.754 90.493C144.754 91.42 144.929 92.2395 145.278 92.9516C145.641 93.6502 146.138 94.1943 146.77 94.5839C147.414 94.96 148.147 95.1481 148.966 95.1481C149.732 95.1481 150.404 94.9802 150.981 94.6443C151.572 94.295 152.029 93.7845 152.352 93.1128H155.596C155.126 94.5502 154.3 95.672 153.117 96.4781C151.948 97.2707 150.571 97.667 148.986 97.667C147.643 97.667 146.427 97.3648 145.339 96.7602C144.264 96.1422 143.411 95.2891 142.779 94.201C142.161 93.1128 141.853 91.8768 141.853 90.493Z" fill="white"/>
<path d="M162.963 97.7274C161.888 97.7274 160.921 97.4924 160.061 97.0221C159.201 96.5385 158.523 95.8601 158.026 94.9869C157.542 94.1136 157.3 93.106 157.3 91.9641C157.3 90.8221 157.549 89.8145 158.046 88.9413C158.556 88.0681 159.248 87.3964 160.122 86.9261C160.995 86.4425 161.969 86.2007 163.044 86.2007C164.118 86.2007 165.092 86.4425 165.966 86.9261C166.839 87.3964 167.524 88.0681 168.021 88.9413C168.532 89.8145 168.787 90.8221 168.787 91.9641C168.787 93.106 168.525 94.1136 168.001 94.9869C167.49 95.8601 166.792 96.5385 165.905 97.0221C165.032 97.4924 164.051 97.7274 162.963 97.7274ZM162.963 95.269C163.473 95.269 163.95 95.148 164.394 94.9062C164.85 94.651 165.213 94.2748 165.482 93.7777C165.751 93.2807 165.885 92.6761 165.885 91.9641C165.885 90.9028 165.603 90.09 165.039 89.5257C164.488 88.948 163.809 88.6592 163.003 88.6592C162.197 88.6592 161.519 88.948 160.968 89.5257C160.431 90.09 160.162 90.9028 160.162 91.9641C160.162 93.0254 160.424 93.8449 160.948 94.4226C161.485 94.9869 162.157 95.269 162.963 95.269Z" fill="white"/>
<path d="M184.721 86.2208C186.091 86.2208 187.193 86.644 188.025 87.4904C188.872 88.3233 189.295 89.4921 189.295 90.9968V97.5461H186.474V91.3797C186.474 90.5064 186.252 89.8414 185.809 89.3846C185.366 88.9145 184.761 88.6793 183.995 88.6793C183.229 88.6793 182.618 88.9145 182.161 89.3846C181.718 89.8414 181.496 90.5064 181.496 91.3797V97.5461H178.675V91.3797C178.675 90.5064 178.454 89.8414 178.01 89.3846C177.567 88.9145 176.962 88.6793 176.197 88.6793C175.417 88.6793 174.799 88.9145 174.343 89.3846C173.899 89.8414 173.678 90.5064 173.678 91.3797V97.5461H170.856V86.382H173.678V87.7322C174.04 87.262 174.504 86.8926 175.068 86.6239C175.646 86.3552 176.277 86.2208 176.962 86.2208C177.836 86.2208 178.615 86.4089 179.3 86.7851C179.985 87.1478 180.516 87.6718 180.892 88.3569C181.255 87.7121 181.779 87.1948 182.464 86.8052C183.162 86.4156 183.915 86.2208 184.721 86.2208Z" fill="white"/>
<path d="M194.794 87.9942C195.156 87.4837 195.653 87.0605 196.285 86.7246C196.93 86.3753 197.662 86.2007 198.481 86.2007C199.435 86.2007 200.295 86.4358 201.06 86.906C201.84 87.3762 202.451 88.0479 202.894 88.9212C203.352 89.781 203.58 90.7819 203.58 91.9238C203.58 93.0657 203.352 94.08 202.894 94.9667C202.451 95.8399 201.84 96.5184 201.06 97.002C200.295 97.4857 199.435 97.7274 198.481 97.7274C197.662 97.7274 196.936 97.5595 196.305 97.2237C195.687 96.8878 195.183 96.4646 194.794 95.9541V102.866H191.973V86.382H194.794V87.9942ZM200.698 91.9238C200.698 91.252 200.557 90.6744 200.275 90.1907C200.006 89.6936 199.643 89.3175 199.187 89.0622C198.743 88.807 198.26 88.6793 197.736 88.6793C197.225 88.6793 196.742 88.8137 196.285 89.0824C195.842 89.3377 195.478 89.7138 195.197 90.2108C194.928 90.708 194.794 91.2924 194.794 91.9641C194.794 92.6358 194.928 93.2202 195.197 93.7173C195.478 94.2144 195.842 94.5972 196.285 94.866C196.742 95.1211 197.225 95.2488 197.736 95.2488C198.26 95.2488 198.743 95.1144 199.187 94.8458C199.643 94.5771 200.006 94.1942 200.275 93.6971C200.557 93.2001 200.698 92.6089 200.698 91.9238Z" fill="white"/>
<path d="M204.904 91.9238C204.904 90.7953 205.126 89.7944 205.569 88.9212C206.026 88.0479 206.638 87.3762 207.403 86.906C208.182 86.4358 209.049 86.2007 210.003 86.2007C210.836 86.2007 211.561 86.3686 212.179 86.7045C212.81 87.0403 213.314 87.4635 213.691 87.974V86.382H216.532V97.5461H213.691V95.9138C213.328 96.4378 212.824 96.8744 212.179 97.2237C211.547 97.5595 210.816 97.7274 209.982 97.7274C209.042 97.7274 208.182 97.4857 207.403 97.002C206.638 96.5184 206.026 95.8399 205.569 94.9667C205.126 94.08 204.904 93.0657 204.904 91.9238ZM213.691 91.9641C213.691 91.2789 213.556 90.6945 213.287 90.2108C213.019 89.7138 212.656 89.3377 212.199 89.0824C211.743 88.8137 211.253 88.6793 210.728 88.6793C210.205 88.6793 209.721 88.807 209.278 89.0622C208.834 89.3175 208.471 89.6936 208.189 90.1907C207.921 90.6744 207.786 91.252 207.786 91.9238C207.786 92.5955 207.921 93.1866 208.189 93.6971C208.471 94.1942 208.834 94.5771 209.278 94.8458C209.734 95.1144 210.218 95.2488 210.728 95.2488C211.253 95.2488 211.743 95.1211 212.199 94.866C212.656 94.5972 213.019 94.2211 213.287 93.7374C213.556 93.2403 213.691 92.6492 213.691 91.9641Z" fill="white"/>
<path d="M225.474 86.2208C226.804 86.2208 227.879 86.644 228.698 87.4904C229.518 88.3233 229.927 89.4921 229.927 90.9968V97.5461H227.106V91.3797C227.106 90.493 226.885 89.8145 226.441 89.3444C225.998 88.8607 225.393 88.6189 224.628 88.6189C223.848 88.6189 223.23 88.8607 222.774 89.3444C222.33 89.8145 222.109 90.493 222.109 91.3797V97.5461H219.287V86.382H222.109V87.7725C222.484 87.2889 222.961 86.9127 223.539 86.644C224.13 86.3619 224.776 86.2208 225.474 86.2208Z" fill="white"/>
<path d="M243.291 86.3821L236.379 102.826H233.376L235.794 97.264L231.32 86.3821H234.484L237.366 94.1808L240.288 86.3821H243.291Z" fill="white"/>
<path d="M116.077 103.613H114.066V89.5299H121.61V98.0803C121.61 101.136 119.134 103.613 116.077 103.613Z" fill="#0328EE"/>
<path d="M131.669 89.5299C131.669 84.6698 127.729 80.7283 122.867 80.7283C122.44 80.7283 122.021 80.7606 121.61 80.8198V89.5299H131.669Z" fill="#0328EE"/>
<path d="M128.819 98.8081C130.748 98.0208 131.674 95.8187 130.887 93.8894C130.1 91.9601 127.898 91.0342 125.968 91.8214C124.039 92.6087 123.113 94.8109 123.9 96.7402C124.688 98.6695 126.89 99.5953 128.819 98.8081Z" fill="white"/>
</g>
</g>
<defs>
<clipPath id="clip0_22_946">
<rect width="134" height="24" fill="white" transform="translate(25)"/>
</clipPath>
<clipPath id="clip1_22_946">
<rect width="134" height="18.9348" fill="white" transform="translate(25.1588 2.75372)"/>
</clipPath>
<clipPath id="clip2_22_946">
<rect width="127.446" height="21.1196" fill="white" transform="translate(202.277 1.84338)"/>
</clipPath>
<clipPath id="clip3_22_946">
<rect width="131.087" height="21.1196" fill="white" transform="translate(26.4565 41.8434)"/>
</clipPath>
<clipPath id="clip4_22_946">
<rect width="128.902" height="21.1196" fill="white" transform="translate(201.543 41.8434)"/>
</clipPath>
<clipPath id="clip5_22_946">
<rect width="134" height="24" fill="white" transform="translate(112 80)"/>
</clipPath>
<clipPath id="clip6_22_946">
<rect width="130.359" height="23.3043" fill="white" transform="translate(113.457 80.7283)"/>
</clipPath>
</defs>
</svg>
