<svg width="168" height="46" viewBox="0 0 168 46" fill="none" xmlns="http://www.w3.org/2000/svg">
<rect width="46" height="46" rx="23" fill="white"/>
<g clip-path="url(#clip0_2_2216)">
<path d="M35.2238 15.8942C34.0199 15.0441 32.7325 14.1377 31.4729 13.2384C31.4451 13.2173 31.4173 13.1963 31.3825 13.1752C31.2433 13.0698 31.0832 12.9574 30.8884 12.8942L30.8744 12.8871C27.5064 12.0651 24.0826 11.222 20.7702 10.407C17.764 9.66934 14.7647 8.93163 11.7585 8.19393C11.682 8.17285 11.6054 8.15177 11.5219 8.13069C11.2505 8.05341 10.9374 7.9691 10.6033 8.01126C10.5059 8.02531 10.4224 8.06044 10.3459 8.10962L10.2624 8.17987C10.1301 8.30634 10.0606 8.46793 10.0258 8.55926L10.0049 8.61547V8.93866L10.0188 8.98784C11.9186 14.3626 13.867 19.8145 15.7459 25.0909C17.1934 29.1518 18.6965 33.3602 20.1648 37.4913C20.2552 37.7724 20.5128 37.9551 20.8329 37.9832H20.9024C21.2017 37.9832 21.4661 37.8356 21.5983 37.5967L27.1098 29.482C28.4528 27.5078 29.7959 25.5265 31.1389 23.5523C31.6887 22.7443 32.2384 21.9293 32.7882 21.1213C33.6928 19.7864 34.6253 18.4094 35.5508 17.0674L35.5995 16.9972V16.9129C35.6204 16.667 35.6274 16.1611 35.2238 15.8942ZM28.766 18.852C27.4716 19.5335 26.1494 20.2361 24.8203 20.9316C25.5927 20.0956 26.3721 19.2525 27.1445 18.4164C28.1118 17.3626 29.1208 16.2736 30.109 15.2056L30.1299 15.1846C30.2134 15.0721 30.3178 14.9667 30.4291 14.8544C30.5057 14.7771 30.5891 14.6998 30.6657 14.6085C31.1807 14.9667 31.7026 15.3321 32.2036 15.6904C32.5655 15.9504 32.9343 16.2103 33.3101 16.4703C31.7791 17.2571 30.2482 18.0651 28.766 18.852ZM25.4396 18.5148C24.4445 19.6038 23.4146 20.7209 22.3917 21.8239C20.4084 19.393 18.3834 16.9269 16.4209 14.5452C15.5302 13.4633 14.6325 12.3743 13.7418 11.2923L13.7348 11.2853C13.533 11.0534 13.3382 10.8005 13.1433 10.5616C13.0181 10.4 12.8858 10.2454 12.7536 10.0839C13.5609 10.2946 14.375 10.4913 15.1753 10.681C15.8782 10.8497 16.6088 11.0253 17.3256 11.208C21.3617 12.1986 25.4048 13.1892 29.4409 14.1799C28.0979 15.6272 26.7479 17.0956 25.4396 18.5148ZM21.9393 32.208C22.0159 31.4703 22.0993 30.7115 22.169 29.9667C22.2316 29.3696 22.2942 28.7583 22.3568 28.1752C22.4543 27.2408 22.5586 26.2712 22.6422 25.3228L22.663 25.1541C22.7326 24.5499 22.8022 23.9246 22.8439 23.2993C22.9205 23.2571 23.004 23.215 23.0945 23.1799C23.1989 23.1307 23.3032 23.0886 23.4076 23.0253C25.0151 22.1752 26.6226 21.3251 28.2371 20.482C29.8446 19.6389 31.4938 18.7677 33.1291 17.9035C31.64 20.0815 30.1438 22.2806 28.6963 24.4234C27.4507 26.2571 26.1703 28.1471 24.8968 30.0089C24.3958 30.7537 23.8739 31.5124 23.3798 32.2431C22.8231 33.0581 22.2525 33.8942 21.6958 34.7302C21.7653 33.8872 21.8488 33.037 21.9393 32.208ZM12.2387 11.7419C12.1482 11.489 12.0508 11.2291 11.9673 10.9832C13.8462 13.2736 15.739 15.578 17.5831 17.8122C18.5364 18.9714 19.4898 20.1236 20.4431 21.2899C20.631 21.5078 20.8189 21.7396 20.9999 21.9644C21.2365 22.2525 21.4731 22.5546 21.7306 22.8427C21.647 23.5663 21.5774 24.297 21.5009 24.9996C21.4522 25.4913 21.4035 25.9832 21.3478 26.482V26.489C21.3269 26.8052 21.2852 27.1213 21.2504 27.4305C21.2016 27.859 21.0903 28.8286 21.0903 28.8286L21.0834 28.8778C20.9581 30.297 20.805 31.7302 20.6589 33.1213C20.5963 33.6975 20.5406 34.2876 20.4779 34.8777C20.4431 34.7724 20.4014 34.667 20.3666 34.5686C20.2622 34.2876 20.1578 33.9925 20.0604 33.7045L19.3158 31.6178C16.9568 24.9925 14.5977 18.3743 12.2387 11.7419Z" fill="#010725"/>
</g>
<path d="M66.158 29V18.254H62.486V16.4H72.152V18.254H68.462V29H66.158ZM73.8588 29V16.4H78.4848C79.4928 16.4 80.3208 16.574 80.9688 16.922C81.6288 17.258 82.1208 17.72 82.4448 18.308C82.7688 18.884 82.9308 19.526 82.9308 20.234C82.9308 21.002 82.7268 21.704 82.3188 22.34C81.9228 22.976 81.2988 23.438 80.4468 23.726L83.0568 29H80.4108L78.0708 24.032H76.1628V29H73.8588ZM76.1628 22.34H78.3408C79.1088 22.34 79.6728 22.154 80.0328 21.782C80.3928 21.41 80.5728 20.918 80.5728 20.306C80.5728 19.706 80.3928 19.226 80.0328 18.866C79.6848 18.506 79.1148 18.326 78.3228 18.326H76.1628V22.34ZM90.9776 29.216C89.7176 29.216 88.6136 28.94 87.6656 28.388C86.7296 27.836 85.9916 27.074 85.4516 26.102C84.9236 25.118 84.6596 23.984 84.6596 22.7C84.6596 21.416 84.9236 20.288 85.4516 19.316C85.9916 18.332 86.7296 17.564 87.6656 17.012C88.6136 16.46 89.7176 16.184 90.9776 16.184C92.2256 16.184 93.3236 16.46 94.2716 17.012C95.2196 17.564 95.9576 18.332 96.4856 19.316C97.0136 20.288 97.2776 21.416 97.2776 22.7C97.2776 23.984 97.0136 25.118 96.4856 26.102C95.9576 27.074 95.2196 27.836 94.2716 28.388C93.3236 28.94 92.2256 29.216 90.9776 29.216ZM90.9776 27.146C92.1776 27.146 93.1316 26.75 93.8396 25.958C94.5596 25.166 94.9196 24.08 94.9196 22.7C94.9196 21.32 94.5596 20.234 93.8396 19.442C93.1316 18.65 92.1776 18.254 90.9776 18.254C89.7776 18.254 88.8176 18.65 88.0976 19.442C87.3776 20.234 87.0176 21.32 87.0176 22.7C87.0176 24.08 87.3776 25.166 88.0976 25.958C88.8176 26.75 89.7776 27.146 90.9776 27.146ZM99.3119 29V16.4H101.616L107.538 25.274V16.4H109.842V29H107.538L101.616 20.144V29H99.3119Z" fill="white"/>
<rect x="128" y="10" width="40" height="26" rx="13" fill="#010D50"/>
<path d="M138.959 26.5V19.132H136.475V18.1H142.703V19.132H140.231V26.5H138.959ZM144.494 26.5V18.1H147.386C148.05 18.1 148.594 18.212 149.018 18.436C149.45 18.66 149.77 18.964 149.978 19.348C150.186 19.724 150.29 20.144 150.29 20.608C150.29 21.128 150.15 21.6 149.87 22.024C149.598 22.448 149.17 22.752 148.586 22.936L150.374 26.5H148.898L147.266 23.116H145.766V26.5H144.494ZM145.766 22.156H147.314C147.89 22.156 148.31 22.016 148.574 21.736C148.846 21.456 148.982 21.092 148.982 20.644C148.982 20.196 148.85 19.84 148.586 19.576C148.322 19.304 147.894 19.168 147.302 19.168H145.766V22.156ZM151.974 26.5L154.566 22.252L151.95 18.1H153.402L155.382 21.244L157.23 18.1H158.658L156.054 22.312L158.694 26.5H157.242L155.25 23.332L153.402 26.5H151.974Z" fill="white"/>
<defs>
<clipPath id="clip0_2_2216">
<rect width="26" height="30" fill="white" transform="translate(10.0049 8)"/>
</clipPath>
</defs>
</svg>
